<svg id="btn-musicOff" xmlns="http://www.w3.org/2000/svg" width="78" height="78" viewBox="0 0 78 78">
  <circle id="Ellipse_8" data-name="Ellipse 8" cx="39" cy="39" r="39" fill="#ba9dbb"/>
  <path id="Union_12" data-name="Union 12" d="M1427.287-1497.98c-1.815-3.414.864-8.388,5.984-11.11a13.092,13.092,0,0,1,8.283-1.568v-8.873l-14.992-14.992c-1.231-1.232-1.519-2.941-.642-3.819s2.587-.59,3.818.643l11.816,11.645v-15.061a2.751,2.751,0,0,1,.126-.829,2.487,2.487,0,0,1,.656-1.257,2.5,2.5,0,0,1,3.534-.062l10.071,9.725A2.5,2.5,0,0,1,1456-1530a2.5,2.5,0,0,1-3.535.061l-6.376-6.157.135,14.65,15.3,15.075a2.576,2.576,0,0,1,.079,3.716,1.843,1.843,0,0,1-1.333.509,3.661,3.661,0,0,1-2.486-1.15l-11.5-11.5.081,8.755c.326,3.194-2.248,7.039-6.525,9.313a14.055,14.055,0,0,1-6.492,1.726C1430.619-1495,1428.327-1496.022,1427.287-1497.98Z" transform="translate(-1404.876 1559.615)" fill="#fff"/>
  <path id="Tracé_418" data-name="Tracé 418" d="M36.672,33.531l4.8,4.672v7l-4.8-4.734Z" transform="translate(-0.078 -7)" fill="#ba9dbb"/>
</svg>
