<svg id="btn-selection" xmlns="http://www.w3.org/2000/svg" width="78" height="78" viewBox="0 0 78 78">
  <circle id="Ellipse_8" data-name="Ellipse 8" cx="39" cy="39" r="39" fill="#98669a"/>
  <path id="Union_13" data-name="Union 13" d="M2174.458,26.711l-2.654-2.718a4.7,4.7,0,0,1,0-6.524l12.579-12.888-12.2-12.5a4.693,4.693,0,0,1,0-6.524l2.653-2.719a4.428,4.428,0,0,1,6.367,0l18.043,18.486a4.693,4.693,0,0,1,0,6.524l-2.653,2.718q-.06.061-.121.119l-15.644,16.027a4.426,4.426,0,0,1-6.367,0Z" transform="translate(-2146.524 34.226)" fill="#fff"/>
</svg>
