<svg id="btn-contact-act" xmlns="http://www.w3.org/2000/svg" width="80" height="80" viewBox="0 0 80 80">
  <g id="bouton-contact-active" transform="translate(5 18)">
    <path id="Tracé_4" data-name="Tracé 4" d="M6,0H64a6,6,0,0,1,6,6V39a6,6,0,0,1-6,6H6a6,6,0,0,1-6-6V6A6,6,0,0,1,6,0Z" transform="translate(0.153)" fill="#ba9dbb"/>
    <path id="Tracé_11" data-name="Tracé 11" d="M38.826.851a2,2,0,0,1,2.348,0l32.66,17.5C75.4,19.488,75.773,29,73.834,29H6.166c-1.938,0-1.569-9.512,0-10.65Z" transform="translate(75.153 29) rotate(180)" fill="#98669a"/>
  </g>
  <rect id="Rectangle_25" data-name="Rectangle 25" width="80" height="80" fill="none"/>
</svg>
