<svg id="c-logo" xmlns="http://www.w3.org/2000/svg" width="24.502" height="27" viewBox="0 0 24.502 27">
  <path id="Soustraction_5" data-name="Soustraction 5" d="M898-1394.5a13.412,13.412,0,0,1-9.546-3.954A13.412,13.412,0,0,1,884.5-1408a13.412,13.412,0,0,1,3.954-9.546A13.412,13.412,0,0,1,898-1421.5a13.531,13.531,0,0,1,6.286,1.549,13.615,13.615,0,0,1,4.717,4.126l-4.825,1.987A8.42,8.42,0,0,0,898-1416.5a8.51,8.51,0,0,0-8.5,8.5,8.51,8.51,0,0,0,8.5,8.5,8.42,8.42,0,0,0,6.178-2.661l4.825,1.986a13.616,13.616,0,0,1-4.717,4.126A13.528,13.528,0,0,1,898-1394.5Z" transform="translate(-884.5 1421.5)" fill="#98669a"/>
</svg>
