<svg id="cplus-logo" xmlns="http://www.w3.org/2000/svg" width="34.566" height="27" viewBox="0 0 34.566 27">
  <path id="Soustraction_3" data-name="Soustraction 3" d="M898-1394.5a13.412,13.412,0,0,1-9.546-3.954A13.412,13.412,0,0,1,884.5-1408a13.412,13.412,0,0,1,3.954-9.546A13.412,13.412,0,0,1,898-1421.5a13.531,13.531,0,0,1,6.286,1.549,13.615,13.615,0,0,1,4.717,4.126l-4.825,1.987A8.42,8.42,0,0,0,898-1416.5a8.51,8.51,0,0,0-8.5,8.5,8.51,8.51,0,0,0,8.5,8.5,8.42,8.42,0,0,0,6.178-2.661l4.825,1.986a13.616,13.616,0,0,1-4.717,4.126A13.528,13.528,0,0,1,898-1394.5Z" transform="translate(-884.5 1421.5)" fill="#98669a"/>
  <path id="Union_15" data-name="Union 15" d="M2171.766-10.561v-1.9h-1.9a.5.5,0,0,1-.5-.5.5.5,0,0,1,.5-.5h1.9v-1.9a.6.6,0,0,1,.6-.6.6.6,0,0,1,.6.6v1.9h1.9a.5.5,0,0,1,.5.5.5.5,0,0,1-.5.5h-1.9v1.9a.6.6,0,0,1-.6.6A.6.6,0,0,1,2171.766-10.561Zm-7,0v-1.9h-1.9a.5.5,0,0,1-.5-.5.5.5,0,0,1,.5-.5h1.9v-1.9a.6.6,0,0,1,.6-.6.6.6,0,0,1,.6.6v1.9h1.9a.5.5,0,0,1,.5.5.5.5,0,0,1-.5.5h-1.9v1.9a.6.6,0,0,1-.6.6A.6.6,0,0,1,2164.766-10.561Z" transform="translate(-2140.799 26.209)" fill="#98669a"/>
</svg>
