<svg id="csharp-logo" xmlns="http://www.w3.org/2000/svg" width="31.933" height="27" viewBox="0 0 31.933 27">
  <path id="Soustraction_3" data-name="Soustraction 3" d="M898-1394.5a13.412,13.412,0,0,1-9.546-3.954A13.412,13.412,0,0,1,884.5-1408a13.412,13.412,0,0,1,3.954-9.546A13.412,13.412,0,0,1,898-1421.5a13.531,13.531,0,0,1,6.286,1.549,13.615,13.615,0,0,1,4.717,4.126l-4.825,1.987A8.42,8.42,0,0,0,898-1416.5a8.51,8.51,0,0,0-8.5,8.5,8.51,8.51,0,0,0,8.5,8.5,8.42,8.42,0,0,0,6.178-2.661l4.825,1.986a13.616,13.616,0,0,1-4.717,4.126A13.528,13.528,0,0,1,898-1394.5Z" transform="translate(-884.5 1421.5)" fill="#98669a"/>
  <path id="Union_15" data-name="Union 15" d="M2167.656-8.261a1,1,0,0,1-.6-1.282l.362-.995h-1.872l-.611,1.679a1,1,0,0,1-1.282.6,1,1,0,0,1-.6-1.282l.362-.995h-.584a.836.836,0,0,1-.836-.836.836.836,0,0,1,.836-.836h1.193l.483-1.328h-.945a.836.836,0,0,1-.836-.835.836.836,0,0,1,.836-.836h1.553l.674-1.851a1,1,0,0,1,1.282-.6,1,1,0,0,1,.6,1.282l-.425,1.167h1.873l.674-1.851a1,1,0,0,1,1.282-.6,1,1,0,0,1,.6,1.282l-.425,1.167h.647a.836.836,0,0,1,.836.836.836.836,0,0,1-.836.835h-1.255l-.483,1.328h1.006a.836.836,0,0,1,.836.836.836.836,0,0,1-.836.836h-1.615l-.611,1.679a1,1,0,0,1-.94.658A1,1,0,0,1,2167.656-8.261Zm.373-3.948.483-1.328h-1.872l-.483,1.328Z" transform="translate(-2140.799 26.209)" fill="#98669a"/>
</svg>
