<svg xmlns="http://www.w3.org/2000/svg" width="30.089" height="28.98" viewBox="0 0 30.089 28.98">
  <path id="Icon_simple-jquery" data-name="Icon simple-jquery" d="M1.928,7.484c-2.665,3.829-2.335,8.808-.3,12.874.046.1.1.193.148.287a2.023,2.023,0,0,0,.1.187,1.059,1.059,0,0,0,.059.1c.033.065.068.128.1.191l.2.333c.036.062.072.122.113.183.069.118.151.235.222.353.033.049.063.1.1.147q.183.287.389.557c.1.134.2.265.3.4.034.048.072.1.107.143l.277.338c.034.039.068.084.1.124.123.148.254.292.384.438,0,0,0,.005.006.009a3.929,3.929,0,0,0,.532.552c.1.1.2.206.308.306l.127.122c.139.131.279.261.426.387,0,0,0,0,.006,0l.072.063c.128.112.257.223.389.326l.157.132c.107.085.217.167.326.251l.171.131c.117.088.241.174.36.26.044.031.088.063.133.092l.036.029.353.232.151.1c.185.118.368.23.55.34.053.026.105.055.154.085.136.078.276.157.413.23.075.043.153.079.231.118.094.053.192.1.292.157a.407.407,0,0,1,.07.029c.041.019.08.039.121.059.151.075.308.147.471.218a1.023,1.023,0,0,1,.1.043c.181.079.362.154.549.228.043.013.088.034.132.05.169.064.344.129.516.191l.063.023c.192.065.382.128.576.188.045.013.092.029.139.041a6.1,6.1,0,0,0,.594.171c12.879,2.347,16.622-7.744,16.622-7.744-3.144,4.095-8.724,5.174-14.009,3.973-.2-.045-.392-.108-.589-.166q-.358-.106-.712-.227l-.078-.03c-.171-.058-.335-.122-.5-.186q-.068-.028-.138-.051c-.185-.074-.364-.151-.542-.23-.039-.013-.072-.03-.11-.045q-.227-.1-.453-.213c-.046-.02-.088-.041-.133-.065-.118-.055-.236-.118-.351-.178q-.119-.057-.235-.121c-.142-.075-.284-.157-.426-.235-.043-.03-.092-.055-.141-.083q-.278-.164-.55-.338-.076-.047-.148-.1-.2-.123-.392-.259c-.044-.029-.084-.06-.129-.092q-.187-.13-.369-.266c-.053-.043-.109-.083-.166-.126-.11-.087-.222-.169-.333-.261l-.148-.118q-.213-.172-.419-.353a.324.324,0,0,0-.046-.038l-.436-.4-.126-.118c-.1-.1-.208-.2-.314-.308l-.122-.126q-.2-.2-.388-.405l-.019-.02c-.133-.146-.262-.294-.393-.444-.034-.039-.065-.08-.1-.122l-.284-.348q-.217-.278-.427-.562C2.714,14.905,1.653,9.382,4,4.852m6.2-.592a9.243,9.243,0,0,0-.319,9.413,11.423,11.423,0,0,0,.85,1.421,6.657,6.657,0,0,0,.994,1.238c.134.153.28.3.432.451l.113.113q.215.207.439.408l.019.016q.254.222.52.429c.043.029.079.063.121.092.176.136.353.266.536.4l.019.011c.078.056.161.108.249.163.035.023.075.053.113.075.133.085.264.166.4.247.021.009.04.02.06.029.113.069.236.136.354.2.041.025.082.044.124.068.084.041.167.085.247.128l.04.018c.169.083.343.161.512.238.043.016.079.03.115.048.139.06.281.118.421.172.063.021.122.046.181.065.128.048.262.092.389.136l.176.056a4.248,4.248,0,0,0,.562.162C27.8,21.7,30.1,14.04,30.1,14.04c-2.072,2.982-6.083,4.4-10.357,3.294q-.283-.073-.562-.163c-.06-.016-.113-.035-.171-.053-.131-.045-.265-.089-.392-.137l-.181-.068c-.141-.056-.284-.109-.421-.169-.043-.019-.082-.031-.114-.05-.176-.079-.353-.157-.523-.241l-.259-.134-.149-.075c-.115-.06-.222-.123-.333-.188a.779.779,0,0,1-.078-.043c-.133-.083-.271-.163-.4-.249-.043-.024-.082-.053-.122-.078l-.261-.171c-.181-.126-.358-.261-.536-.392-.04-.036-.079-.067-.118-.1A11.935,11.935,0,0,1,11.066,9.24a8.988,8.988,0,0,1,.7-7.208m5.381-.185a5.8,5.8,0,0,0-.464,5.592,7.892,7.892,0,0,0,4.524,4.224c.082.031.161.058.245.088l.11.034c.115.036.232.079.351.105,5.493,1.059,6.979-2.821,7.38-3.39-1.308,1.878-3.5,2.328-6.191,1.675a6.08,6.08,0,0,1-.648-.2,7.963,7.963,0,0,1-.774-.319,8.185,8.185,0,0,1-1.356-.828C17.916,7,16.424,3.518,18,.679" transform="translate(-0.016 -0.68)" fill="#98669a"/>
</svg>
