<svg xmlns="http://www.w3.org/2000/svg" width="120" height="120" viewBox="0 0 120 120">
  <path id="Icon_awesome-github" data-name="Icon awesome-github" d="M40.137,97.186c0,.5-.556.893-1.258.893-.8.074-1.355-.323-1.355-.893,0-.5.556-.893,1.258-.893C39.508,96.219,40.137,96.616,40.137,97.186ZM32.613,96.07c-.169.5.315,1.067,1.04,1.216a1.122,1.122,0,0,0,1.5-.5c.145-.5-.315-1.067-1.04-1.29A1.229,1.229,0,0,0,32.613,96.07Zm10.694-.422c-.7.174-1.185.645-1.113,1.216.073.5.7.819,1.427.645.7-.174,1.185-.645,1.113-1.141C44.661,95.9,44.008,95.573,43.306,95.648ZM59.226.563C25.669.563,0,26.691,0,61.107c0,27.518,16.887,51.066,41.008,59.354,3.1.571,4.185-1.39,4.185-3,0-1.538-.073-10.025-.073-15.236,0,0-16.935,3.722-20.492-7.394,0,0-2.758-7.221-6.726-9.082,0,0-5.54-3.9.387-3.821a12.719,12.719,0,0,1,9.339,6.4c5.3,9.578,14.177,6.824,17.637,5.186a13.928,13.928,0,0,1,3.871-8.362C35.613,83.613,21.968,81.6,21.968,57.733c0-6.824,1.839-10.248,5.71-14.615-.629-1.613-2.685-8.263.629-16.848C33.363,24.656,45,32.969,45,32.969a55.779,55.779,0,0,1,30.387,0s11.637-8.337,16.694-6.7c3.315,8.61,1.258,15.235.629,16.848,3.871,4.392,6.242,7.816,6.242,14.615,0,23.945-14.25,25.856-27.774,27.419,2.226,1.96,4.113,5.682,4.113,11.513,0,8.362-.073,18.709-.073,20.744,0,1.613,1.113,3.573,4.185,3,24.194-8.238,40.6-31.786,40.6-59.3C120,26.691,92.782.563,59.226.563ZM23.516,86.144c-.315.248-.242.819.169,1.29.387.4.944.571,1.258.248.315-.248.242-.819-.169-1.29C24.387,86,23.831,85.822,23.516,86.144ZM20.9,84.134c-.169.323.073.72.556.968a.709.709,0,0,0,1.04-.174c.169-.323-.073-.72-.556-.968C21.46,83.812,21.073,83.886,20.9,84.134Zm7.839,8.834c-.387.323-.242,1.067.315,1.538.556.571,1.258.645,1.573.248.315-.323.169-1.067-.315-1.538C29.782,92.645,29.056,92.571,28.742,92.968ZM25.984,89.32c-.387.248-.387.893,0,1.464s1.04.819,1.355.571a1.153,1.153,0,0,0,0-1.538C27,89.246,26.371,89,25.984,89.32Z" transform="translate(0 -0.563)" fill="#98669a"/>
</svg>
