<svg xmlns="http://www.w3.org/2000/svg" width="64.09" height="33.714" viewBox="0 0 64.09 33.714">
  <path id="Icon_simple-php" data-name="Icon simple-php" d="M18.72,20.6H16.2l-1.375,7.071h2.238a5.415,5.415,0,0,0,3.317-.839,4.453,4.453,0,0,0,1.469-2.8,3.062,3.062,0,0,0-.331-2.657,3.769,3.769,0,0,0-2.8-.774ZM32.045,8.532C14.348,8.532,0,16.079,0,25.388S14.348,42.246,32.045,42.246,64.09,34.7,64.09,25.388,49.742,8.532,32.045,8.532Zm-8.706,19.9A6.481,6.481,0,0,1,20.891,29.9a11.41,11.41,0,0,1-3.431.438H14.305l-.873,4.489H9.752l3.285-16.893h7.077q3.192,0,4.657,1.677a5.251,5.251,0,0,1,.881,4.679,7.361,7.361,0,0,1-2.313,4.139Zm10.746,1.909,1.45-7.474a2.02,2.02,0,0,0-.182-1.738,2.563,2.563,0,0,0-1.835-.465H30.6l-1.88,9.68H25.07l3.285-16.9H32l-.873,4.492h3.253q3.072,0,4.235,1.071t.7,3.469l-1.527,7.862H34.085ZM54.372,24.29a7.429,7.429,0,0,1-.814,2.262,7.626,7.626,0,0,1-1.5,1.877A6.516,6.516,0,0,1,49.611,29.9a11.417,11.417,0,0,1-3.434.438H43.026l-.873,4.492h-3.68l3.285-16.893h7.074q3.192,0,4.657,1.677a5.244,5.244,0,0,1,.884,4.676ZM47.443,20.6H44.924l-1.378,7.071h2.238a5.4,5.4,0,0,0,3.317-.839,4.468,4.468,0,0,0,1.471-2.8,3.06,3.06,0,0,0-.334-2.657,3.769,3.769,0,0,0-2.8-.774Z" transform="translate(0 -8.532)" fill="#98669a"/>
</svg>
