<svg xmlns="http://www.w3.org/2000/svg" width="28.98" height="28.98" viewBox="0 0 28.98 28.98">
  <path id="Icon_simple-javascript" data-name="Icon simple-javascript" d="M0,0H28.98V28.98H0ZM26.606,22.068c-.211-1.322-1.072-2.433-3.626-3.469-.889-.417-1.876-.706-2.17-1.377a1.426,1.426,0,0,1-.056-.851,1.384,1.384,0,0,1,1.829-.8,1.964,1.964,0,0,1,1.179,1.087c1.249-.816,1.249-.816,2.119-1.358a4.984,4.984,0,0,0-.708-.942,4.055,4.055,0,0,0-3.422-1.249l-.851.107a3.892,3.892,0,0,0-2.065,1.214,3.788,3.788,0,0,0,.687,5.4c1.648,1.232,4.058,1.5,4.366,2.663.29,1.413-1.051,1.866-2.374,1.7A3.179,3.179,0,0,1,19.4,22.584l-2.21,1.269a4.883,4.883,0,0,0,.978,1.339c2.1,2.12,7.354,2.012,8.3-1.212a4.087,4.087,0,0,0,.089-1.992l.056.081ZM15.759,13.32H13.045c0,2.34-.011,4.666-.011,7.01a11.433,11.433,0,0,1-.167,3.274c-.4.832-1.425.726-1.891.58a2.33,2.33,0,0,1-1-1.032,1.036,1.036,0,0,0-.153-.237l-2.2,1.358a4.271,4.271,0,0,0,1.6,1.832,5.314,5.314,0,0,0,3.872.489,3.392,3.392,0,0,0,2.187-1.7c.616-1.123.485-2.5.479-4.04.014-2.48,0-4.962,0-7.461l0-.068Z" fill="#98669a"/>
</svg>
