<svg xmlns="http://www.w3.org/2000/svg" width="120" height="120" viewBox="0 0 120 120">
  <path id="Icon_simple-linkedin" data-name="Icon simple-linkedin" d="M102.235,102.26H84.465V74.415c0-6.64-.135-15.185-9.26-15.185-9.265,0-10.68,7.225-10.68,14.7V102.26H46.755V45h17.07v7.805h.23c2.385-4.5,8.185-9.25,16.85-9.25,18,0,21.335,11.85,21.335,27.275v31.43Zm-75.55-65.1A10.32,10.32,0,1,1,37.005,26.84,10.31,10.31,0,0,1,26.685,37.165Zm8.91,65.1H17.775V45h17.82ZM111.125,0H8.855A8.749,8.749,0,0,0,0,8.645v102.71A8.745,8.745,0,0,0,8.855,120H111.11a8.779,8.779,0,0,0,8.89-8.645V8.645A8.782,8.782,0,0,0,111.11,0Z" fill="#98669a"/>
</svg>
