<svg xmlns="http://www.w3.org/2000/svg" viewBox="0 0 10565.44 650.22"><defs><style>.cls-1{fill:#98669a;}.cls-2{fill:#ba9dbb;}</style></defs><g id="Calque_2" data-name="Calque 2"><g id="Frame_2" data-name="Frame 2"><g id="Calque_4_-_copie_2" data-name="Calque 4 - copie 2"><polyline class="cls-1" points="566 446 487 383.78 289 521"/><polygon class="cls-1" points="1030.33 505.4 1166.33 374 1222.33 412.78 1436 216 1593 216 1697 185 1817 300 1920 338.5 1920 425 1737 364 1633 501 1550 370 1454 318 1291.67 505.4 1161 435.5 1030.33 505.4"/><polyline class="cls-2" points="1222.33 412.78 1232 435 1173.32 410.93 1166.33 374"/><polyline class="cls-2" points="1291.67 505.4 1232 435 1179 413"/><polygon class="cls-2" points="1436 216 1471 299 1502 306 1550 370 1507 267 1488 244 1436 216"/><polygon class="cls-2" points="1384.11 285.44 1348 335 1348 370 1366 345 1375 321 1386 303 1384.11 285.44"/><polygon class="cls-2" points="1315 404 1306 438 1305 482 1330 445 1367 407 1337 417 1315 404"/><polygon class="cls-2" points="1593 216 1550 237 1555 285 1699.22 374 1597 285 1584 253 1593 216"/><polyline class="cls-2" points="1640 338 1673 412 1556 278"/><polygon class="cls-2" points="1550 237 1550 293 1591 364 1596 443 1602 352 1577 299 1550 237"/><polygon class="cls-2" points="1699 237 1733 319 1800 311 1920 338 1817 300 1697 185 1699 237"/><polygon class="cls-2" points="1783 340 1809 365 1829 370 1853 370 1845 354 1797 334 1783 340"/><polygon class="cls-2" points="1298.11 327.94 1262 386 1262 412.5 1307 435 1315 404 1315 328 1298.11 327.94"/><polyline class="cls-1" points="289 521 246 217 0 4 372 188.04 531 345 622 374 780 291 852 156 974 463 826 381 769 463 566 446"/><polygon class="cls-2" points="853 263 842 293 857 338 974 463 917 316 852 156 853 263"/><polygon class="cls-2" points="713 316 692 338 711 348 718 373 744 331 780 291 713 316"/><polygon class="cls-2" points="371 250 421 310 452 319 502 373 461 276 372 188 371 250"/><polygon class="cls-2" points="152 102 282 217 371 250 372 188 130 68 0 4 152 102"/><polygon class="cls-2" points="260 241 289 358 355 373 371 445 404 355.5 324 332 260 241"/><polygon class="cls-2" points="531 345 566 446 634 452 633 404 592 395 622 374 531 345"/><polyline class="cls-1" points="1917 337 2013 299 2076.33 293 2120 237 2120 428.22 1948.33 482 1920 425"/><polygon class="cls-1" points="2233 273.37 2233 428.04 2203 440 2119 432.19 2119 301.22 2119 238 2178.37 238 2233 273.37"/><polygon class="cls-2" points="2012 300 2022 389 2106 433 2082 398 2073 360 2043 346 2012 300"/><polygon class="cls-2" points="2119.15 237.61 2075 294 2098 312 2110 341 2176 389 2150.15 283.61 2119.15 237.61"/><polygon class="cls-2" points="1919 339 1937 375 1935 396 1951 406 1961 460 1983.8 392.42 1919 339"/><polygon class="cls-2" points="1948.89 387 1974.89 412 1994.89 417 2018.89 417 2010.89 401 1962.89 381 1948.89 387"/><polygon class="cls-2" points="1970 339 2020 371 2022 389 2051 438 2043 346 2015 330 1970 339"/><polygon class="cls-1" points="2232 275.04 2294.5 178.17 2394.67 115.67 2501.5 253.17 2574.67 279.67 2653.33 439.67 2577.33 483.67 2426.67 418.67 2232 429.7 2232 275.04"/><polyline class="cls-1" points="2760 482 2802.33 399 2900 322 2946.33 345.2 3049 267 3144 255 3235.67 185 3270 238 3315.67 278 3362 254 3440 226 3488 139 3523 91 3523 411 3306 474 3165 412 2924 475 2852 462 2720 542"/><polygon class="cls-2" points="2396 116 2339 189 2370 252 2461 339 2444 258 2453 189 2396 116"/><polygon class="cls-2" points="2491 238 2508 317 2534 329 2568 427 2574 311 2557 273 2491 238"/><polygon class="cls-2" points="2615 360 2615 424 2550 472 2578 484 2678 427 2666 397 2615 360"/><polygon class="cls-2" points="2277 263 2280 291 2273 339 2312 278 2312 215 2292 256 2277 263"/><polygon class="cls-2" points="2280 291 2293 309 2273 373.67 2312 304 2312 253 2292 290.67 2280 291"/><polygon class="cls-2" points="2292 270.33 2305 288.33 2348 360 2324 283.33 2324 232.33 2304 270 2292 270.33"/><polygon class="cls-2" points="2288 277.33 2301 295.33 2299 345 2320 290.33 2320 239.33 2300 277 2288 277.33"/><polygon class="cls-2" points="2900 322 2814 417 2781 484 2878 399 2920 389 2946 345 2900 322"/><polygon class="cls-2" points="3049 267 2999 359 3008 427 3050 366 3110 345 3131 286 3049 267"/><polygon class="cls-2" points="3236 185 3200 307 3316 422 3270 313 3316 278 3270 238 3236 185"/><polygon class="cls-2" points="3376.67 343 3402.67 368 3422.67 373 3446.67 373 3438.67 357 3390.67 337 3376.67 343"/><polygon class="cls-2" points="3360.27 306.17 3378.27 342.17 3376.27 363.17 3392.27 373.17 3402.27 427.17 3425.07 359.58 3360.27 306.17"/><polyline class="cls-1" points="974 650 974 459 826 377 769 459 566 442 289 517 246 213 0 0 0 650"/><polyline class="cls-1" points="973 650 973 459 1029.33 501.4 1160 431.5 1291 501 1453 314 1549 366 1632 497 1736 360 1919 421 1947 478 2119 424 2202 436 2232 421 2427 414 2577 480 2719 538 2851 458 2923 471 3164 408 3305 470 3522 407 3522 650"/><polyline class="cls-1" points="2677 425 2581 482 2719 538 2728 533 2799 431"/><polyline class="cls-1" points="4087.33 446 4008.33 383.78 3810.33 521"/><polygon class="cls-1" points="4551.67 505.4 4687.67 374 4743.67 412.78 4957.33 216 5114.33 216 5218.33 185 5338.33 300 5441.33 338.5 5441.33 425 5258.33 364 5154.33 501 5071.33 370 4975.33 318 4813 505.4 4682.33 435.5 4551.67 505.4"/><polyline class="cls-2" points="4743.67 412.78 4753.33 435 4694.66 410.93 4687.67 374"/><polyline class="cls-2" points="4813 505.4 4753.33 435 4700.33 413"/><polygon class="cls-2" points="4957.33 216 4992.33 299 5023.33 306 5071.33 370 5028.33 267 5009.33 244 4957.33 216"/><polygon class="cls-2" points="4905.44 285.44 4869.33 335 4869.33 370 4887.33 345 4896.33 321 4907.33 303 4905.44 285.44"/><polygon class="cls-2" points="4836.33 404 4827.33 438 4826.33 482 4851.33 445 4888.33 407 4858.33 417 4836.33 404"/><polygon class="cls-2" points="5114.33 216 5071.33 237 5076.33 285 5220.56 374 5118.33 285 5105.33 253 5114.33 216"/><polyline class="cls-2" points="5161.33 338 5194.33 412 5077.33 278"/><polygon class="cls-2" points="5071.33 237 5071.33 293 5112.33 364 5117.33 443 5123.33 352 5098.33 299 5071.33 237"/><polygon class="cls-2" points="5220.33 237 5254.33 319 5321.33 311 5441.33 338 5338.33 300 5218.33 185 5220.33 237"/><polygon class="cls-2" points="5304.33 340 5330.33 365 5350.33 370 5374.33 370 5366.33 354 5318.33 334 5304.33 340"/><polygon class="cls-2" points="4819.44 327.94 4783.33 386 4783.33 412.5 4828.33 435 4836.33 404 4836.33 328 4819.44 327.94"/><polyline class="cls-1" points="3810.33 521 3767.33 217 3521.33 4 3893.33 188.04 4052.33 345 4143.33 374 4301.33 291 4373.33 156 4495.33 463 4347.33 381 4290.33 463 4087.33 446"/><polygon class="cls-2" points="4374.33 263 4363.33 293 4378.33 338 4495.33 463 4438.33 316 4373.33 156 4374.33 263"/><polygon class="cls-2" points="4234.33 316 4213.33 338 4232.33 348 4239.33 373 4265.33 331 4301.33 291 4234.33 316"/><polygon class="cls-2" points="3892.33 250 3942.33 310 3973.33 319 4023.33 373 3982.33 276 3893.33 188 3892.33 250"/><polygon class="cls-2" points="3673.33 102 3803.33 217 3892.33 250 3893.33 188 3651.33 68 3521.33 4 3673.33 102"/><polygon class="cls-2" points="3781.33 241 3810.33 358 3876.33 373 3892.33 445 3925.33 355.5 3845.33 332 3781.33 241"/><polygon class="cls-2" points="4052.33 345 4087.33 446 4155.33 452 4154.33 404 4113.33 395 4143.33 374 4052.33 345"/><polyline class="cls-1" points="5438.33 337 5534.33 299 5597.67 293 5641.33 237 5641.33 428.22 5469.67 482 5441.33 425"/><polygon class="cls-1" points="5754.33 273.37 5754.33 428.04 5724.33 440 5640.33 432.19 5640.33 301.22 5640.33 238 5699.7 238 5754.33 273.37"/><polygon class="cls-2" points="5533.33 300 5543.33 389 5627.33 433 5603.33 398 5594.33 360 5564.33 346 5533.33 300"/><polygon class="cls-2" points="5640.48 237.61 5596.33 294 5619.33 312 5631.33 341 5697.33 389 5671.48 283.61 5640.48 237.61"/><polygon class="cls-2" points="5440.33 339 5458.33 375 5456.33 396 5472.33 406 5482.33 460 5505.13 392.42 5440.33 339"/><polygon class="cls-2" points="5470.22 387 5496.22 412 5516.22 417 5540.22 417 5532.22 401 5484.22 381 5470.22 387"/><polygon class="cls-2" points="5491.33 339 5541.33 371 5543.33 389 5572.33 438 5564.33 346 5536.33 330 5491.33 339"/><polygon class="cls-1" points="5753.33 275.04 5815.83 178.17 5916 115.67 6022.83 253.17 6096 279.67 6174.67 439.67 6098.67 483.67 5948 418.67 5753.33 429.7 5753.33 275.04"/><polyline class="cls-1" points="6281.33 482 6323.67 399 6421.33 322 6467.67 345.2 6570.33 267 6665.33 255 6757 185 6791.33 238 6837 278 6883.33 254 6961.33 226 7009.33 139 7044.33 91 7044.33 411 6827.33 474 6686.33 412 6445.33 475 6373.33 462 6241.33 542"/><polygon class="cls-2" points="5917.33 116 5860.33 189 5891.33 252 5982.33 339 5965.33 258 5974.33 189 5917.33 116"/><polygon class="cls-2" points="6012.33 238 6029.33 317 6055.33 329 6089.33 427 6095.33 311 6078.33 273 6012.33 238"/><polygon class="cls-2" points="6136.33 360 6136.33 424 6071.33 472 6099.33 484 6199.33 427 6187.33 397 6136.33 360"/><polygon class="cls-2" points="5798.33 263 5801.33 291 5794.33 339 5833.33 278 5833.33 215 5813.33 256 5798.33 263"/><polygon class="cls-2" points="5801.33 291 5814.33 309 5794.33 373.67 5833.33 304 5833.33 253 5813.33 290.67 5801.33 291"/><polygon class="cls-2" points="5813.33 270.33 5826.33 288.33 5869.33 360 5845.33 283.33 5845.33 232.33 5825.33 270 5813.33 270.33"/><polygon class="cls-2" points="5809.33 277.33 5822.33 295.33 5820.33 345 5841.33 290.33 5841.33 239.33 5821.33 277 5809.33 277.33"/><polygon class="cls-2" points="6421.33 322 6335.33 417 6302.33 484 6399.33 399 6441.33 389 6467.33 345 6421.33 322"/><polygon class="cls-2" points="6570.33 267 6520.33 359 6529.33 427 6571.33 366 6631.33 345 6652.33 286 6570.33 267"/><polygon class="cls-2" points="6757.33 185 6721.33 307 6837.33 422 6791.33 313 6837.33 278 6791.33 238 6757.33 185"/><polygon class="cls-2" points="6898 343 6924 368 6944 373 6968 373 6960 357 6912 337 6898 343"/><polygon class="cls-2" points="6881.6 306.17 6899.6 342.17 6897.6 363.17 6913.6 373.17 6923.6 427.17 6946.4 359.58 6881.6 306.17"/><polyline class="cls-1" points="4495.33 650 4495.33 459 4347.33 377 4290.33 459 4087.33 442 3810.33 517 3767.33 213 3521.33 0 3521.33 650"/><polyline class="cls-1" points="4494.33 650 4494.33 459 4550.67 501.4 4681.33 431.5 4812.33 501 4974.33 314 5070.33 366 5153.33 497 5257.33 360 5440.33 421 5468.33 478 5640.33 424 5723.33 436 5753.33 421 5948.33 414 6098.33 480 6240.33 538 6372.33 458 6444.33 471 6685.33 408 6826.33 470 7043.33 407 7043.33 650"/><polyline class="cls-1" points="6198.33 425 6102.33 482 6240.33 538 6249.33 533 6320.33 431"/><polyline class="cls-1" points="7608.44 446.22 7529.44 384 7331.44 521.22"/><polygon class="cls-1" points="8072.78 505.62 8208.78 374.22 8264.78 413 8478.44 216.22 8635.44 216.22 8739.44 185.22 8859.44 300.22 8962.44 338.72 8962.44 425.22 8779.44 364.22 8675.44 501.22 8592.44 370.22 8496.44 318.22 8334.11 505.62 8203.44 435.72 8072.78 505.62"/><polyline class="cls-2" points="8264.78 413 8274.44 435.22 8215.77 411.15 8208.78 374.22"/><polyline class="cls-2" points="8334.11 505.62 8274.44 435.22 8221.44 413.22"/><polygon class="cls-2" points="8478.44 216.22 8513.44 299.22 8544.44 306.22 8592.44 370.22 8549.44 267.22 8530.44 244.22 8478.44 216.22"/><polygon class="cls-2" points="8426.56 285.67 8390.44 335.22 8390.44 370.22 8408.44 345.22 8417.44 321.22 8428.44 303.22 8426.56 285.67"/><polygon class="cls-2" points="8357.44 404.22 8348.44 438.22 8347.44 482.22 8372.44 445.22 8409.44 407.22 8379.44 417.22 8357.44 404.22"/><polygon class="cls-2" points="8635.44 216.22 8592.44 237.22 8597.44 285.22 8741.67 374.22 8639.44 285.22 8626.44 253.22 8635.44 216.22"/><polyline class="cls-2" points="8682.44 338.22 8715.44 412.22 8598.44 278.22"/><polygon class="cls-2" points="8592.44 237.22 8592.44 293.22 8633.44 364.22 8638.44 443.22 8644.44 352.22 8619.44 299.22 8592.44 237.22"/><polygon class="cls-2" points="8741.44 237.22 8775.44 319.22 8842.44 311.22 8962.44 338.22 8859.44 300.22 8739.44 185.22 8741.44 237.22"/><polygon class="cls-2" points="8825.44 340.22 8851.44 365.22 8871.44 370.22 8895.44 370.22 8887.44 354.22 8839.44 334.22 8825.44 340.22"/><polygon class="cls-2" points="8340.56 328.17 8304.44 386.22 8304.44 412.72 8349.44 435.22 8357.44 404.22 8357.44 328.22 8340.56 328.17"/><polyline class="cls-1" points="7331.44 521.22 7288.44 217.22 7042.44 4.22 7414.44 188.26 7573.44 345.22 7664.44 374.22 7822.44 291.22 7894.44 156.22 8016.44 463.22 7868.44 381.22 7811.44 463.22 7608.44 446.22"/><polygon class="cls-2" points="7895.44 263.22 7884.44 293.22 7899.44 338.22 8016.44 463.22 7959.44 316.22 7894.44 156.22 7895.44 263.22"/><polygon class="cls-2" points="7755.44 316.22 7734.44 338.22 7753.44 348.22 7760.44 373.22 7786.44 331.22 7822.44 291.22 7755.44 316.22"/><polygon class="cls-2" points="7413.44 250.22 7463.44 310.22 7494.44 319.22 7544.44 373.22 7503.44 276.22 7414.44 188.22 7413.44 250.22"/><polygon class="cls-2" points="7194.44 102.22 7324.44 217.22 7413.44 250.22 7414.44 188.22 7172.44 68.22 7042.44 4.22 7194.44 102.22"/><polygon class="cls-2" points="7302.44 241.22 7331.44 358.22 7397.44 373.22 7413.44 445.22 7446.44 355.72 7366.44 332.22 7302.44 241.22"/><polygon class="cls-2" points="7573.44 345.22 7608.44 446.22 7676.44 452.22 7675.44 404.22 7634.44 395.22 7664.44 374.22 7573.44 345.22"/><polyline class="cls-1" points="8959.44 337.22 9055.44 299.22 9118.78 293.22 9162.44 237.22 9162.44 428.44 8990.78 482.22 8962.44 425.22"/><polygon class="cls-1" points="9275.44 273.59 9275.44 428.26 9245.44 440.22 9161.44 432.41 9161.44 301.44 9161.44 238.22 9220.82 238.22 9275.44 273.59"/><polygon class="cls-2" points="9054.44 300.22 9064.44 389.22 9148.44 433.22 9124.44 398.22 9115.44 360.22 9085.44 346.22 9054.44 300.22"/><polygon class="cls-2" points="9161.59 237.83 9117.44 294.22 9140.44 312.22 9152.44 341.22 9218.44 389.22 9192.59 283.83 9161.59 237.83"/><polygon class="cls-2" points="8961.44 339.22 8979.44 375.22 8977.44 396.22 8993.44 406.22 9003.44 460.22 9026.24 392.64 8961.44 339.22"/><polygon class="cls-2" points="8991.33 387.22 9017.33 412.22 9037.33 417.22 9061.33 417.22 9053.33 401.22 9005.33 381.22 8991.33 387.22"/><polygon class="cls-2" points="9012.44 339.22 9062.44 371.22 9064.44 389.22 9093.44 438.22 9085.44 346.22 9057.44 330.22 9012.44 339.22"/><polygon class="cls-1" points="9274.44 275.26 9336.94 178.39 9437.11 115.89 9543.94 253.39 9617.11 279.89 9695.78 439.89 9619.78 483.89 9469.11 418.89 9274.44 429.93 9274.44 275.26"/><polyline class="cls-1" points="9802.44 482.22 9844.78 399.22 9942.44 322.22 9988.78 345.42 10091.44 267.22 10186.44 255.22 10278.11 185.22 10312.44 238.22 10358.11 278.22 10404.44 254.22 10482.44 226.22 10530.44 139.22 10565.44 91.22 10565.44 411.22 10348.44 474.22 10207.44 412.22 9966.44 475.22 9894.44 462.22 9762.44 542.22"/><polygon class="cls-2" points="9438.44 116.22 9381.44 189.22 9412.44 252.22 9503.44 339.22 9486.44 258.22 9495.44 189.22 9438.44 116.22"/><polygon class="cls-2" points="9533.44 238.22 9550.44 317.22 9576.44 329.22 9610.44 427.22 9616.44 311.22 9599.44 273.22 9533.44 238.22"/><polygon class="cls-2" points="9657.44 360.22 9657.44 424.22 9592.44 472.22 9620.44 484.22 9720.44 427.22 9708.44 397.22 9657.44 360.22"/><polygon class="cls-2" points="9319.44 263.22 9322.44 291.22 9315.44 339.22 9354.44 278.22 9354.44 215.22 9334.44 256.22 9319.44 263.22"/><polygon class="cls-2" points="9322.44 291.22 9335.44 309.22 9315.44 373.89 9354.44 304.22 9354.44 253.22 9334.44 290.89 9322.44 291.22"/><polygon class="cls-2" points="9334.44 270.56 9347.44 288.56 9390.44 360.22 9366.44 283.56 9366.44 232.56 9346.44 270.22 9334.44 270.56"/><polygon class="cls-2" points="9330.44 277.56 9343.44 295.56 9341.44 345.22 9362.44 290.56 9362.44 239.56 9342.44 277.22 9330.44 277.56"/><polygon class="cls-2" points="9942.44 322.22 9856.44 417.22 9823.44 484.22 9920.44 399.22 9962.44 389.22 9988.44 345.22 9942.44 322.22"/><polygon class="cls-2" points="10091.44 267.22 10041.44 359.22 10050.44 427.22 10092.44 366.22 10152.44 345.22 10173.44 286.22 10091.44 267.22"/><polygon class="cls-2" points="10565.44 91.22 10536.44 181.22 10521.44 252.22 10462.44 291.22 10528.44 316.22 10565.44 398.22 10565.44 91.22"/><polygon class="cls-2" points="10278.44 185.22 10242.44 307.22 10358.44 422.22 10312.44 313.22 10358.44 278.22 10312.44 238.22 10278.44 185.22"/><polygon class="cls-2" points="10419.11 343.22 10445.11 368.22 10465.11 373.22 10489.11 373.22 10481.11 357.22 10433.11 337.22 10419.11 343.22"/><polygon class="cls-2" points="10402.71 306.39 10420.71 342.39 10418.71 363.39 10434.71 373.39 10444.71 427.39 10467.51 359.81 10402.71 306.39"/><polyline class="cls-1" points="8016.44 650.22 8016.44 459.22 7868.44 377.22 7811.44 459.22 7608.44 442.22 7331.44 517.22 7288.44 213.22 7042.44 0.22 7042.44 650.22"/><polyline class="cls-1" points="8015.44 650.22 8015.44 459.22 8071.78 501.62 8202.44 431.72 8333.44 501.22 8495.44 314.22 8591.44 366.22 8674.44 497.22 8778.44 360.22 8961.44 421.22 8989.44 478.22 9161.44 424.22 9244.44 436.22 9274.44 421.22 9469.44 414.22 9619.44 480.22 9761.44 538.22 9893.44 458.22 9965.44 471.22 10206.44 408.22 10347.44 470.22 10564.44 407.22 10564.44 650.22"/><polyline class="cls-1" points="9719.44 425.22 9623.44 482.22 9761.44 538.22 9770.44 533.22 9841.44 431.22"/></g></g></g></svg>