<svg xmlns="http://www.w3.org/2000/svg" width="606" height="424.44" viewBox="0 0 606 424.44">
  <g id="Groupe_211" data-name="Groupe 211" transform="translate(-325 -1885.28)">
    <g id="picto-maillons" transform="translate(481.398 1925.801)">
      <rect id="Rectangle_478" data-name="Rectangle 478" width="6.277" height="68.943" transform="translate(1.305 31.567) rotate(-102)" fill="#98669a"/>
      <rect id="Rectangle_480" data-name="Rectangle 480" width="6.3" height="73.827" transform="translate(135.408 26.295) rotate(-52)" fill="#ba9dbb"/>
      <rect id="Rectangle_481" data-name="Rectangle 481" width="6.277" height="129.943" transform="matrix(-0.588, -0.809, 0.809, -0.588, 267.82, 81.457)" fill="#98669a"/>
    </g>
    <circle id="Ellipse_30" data-name="Ellipse 30" cx="70" cy="70" r="70" transform="translate(355 1892.28)" fill="#98669a"/>
    <text id="Musique" transform="translate(374 1971.28)" fill="#fff" font-size="25" font-family="Raleway" font-weight="700"><tspan x="0" y="0">Musique</tspan></text>
    <g id="btn-on" transform="translate(665 1955.28)">
      <circle id="Ellipse_8" data-name="Ellipse 8" cx="54" cy="54" r="54" fill="#98669a"/>
    </g>
    <g id="btn-off" transform="translate(542 1885.28)">
      <path id="Tracé_414" data-name="Tracé 414" d="M46,0A46,46,0,1,1,0,46,46,46,0,0,1,46,0Z" fill="#ba9dbb"/>
      <circle id="Ellipse_13" data-name="Ellipse 13" cx="14" cy="14" r="14" transform="translate(32 32)" fill="#ba9dbb"/>
    </g>
    <g id="btn-off-2" data-name="btn-off" transform="translate(820 1900.28)">
      <path id="Tracé_414-2" data-name="Tracé 414" d="M31,0A31,31,0,1,1,0,31,31,31,0,0,1,31,0Z" fill="#ba9dbb"/>
      <circle id="Ellipse_13-2" data-name="Ellipse 13" cx="14" cy="14" r="14" transform="translate(17 17)" fill="#ba9dbb"/>
    </g>
    <g id="bass" transform="translate(606.514 1892.53) rotate(45)">
      <path id="Tracé_424" data-name="Tracé 424" d="M12.132.051a2.109,2.109,0,0,0-1.49,1.778c-.081.37-.162.427-.231.162A3.673,3.673,0,0,0,9.6.889C9.291.623,9.084.617,8.853.86a1.96,1.96,0,0,0-.225,1.928A.939.939,0,0,0,8.991,3a2.259,2.259,0,0,0,1.033-.069.207.207,0,0,1,.208.012c.1.063.092.115-.185,1.01a6.636,6.636,0,0,1-.335.947c-.023,0-.087-.081-.139-.185A2.657,2.657,0,0,0,8.218,3.567c-.191,0-.4.248-.514.595a2.061,2.061,0,0,0,.185,1.582,1.53,1.53,0,0,0,1.2.017,1.319,1.319,0,0,1,.4-.092,6.544,6.544,0,0,1-.214.941c-.381,1.42-.37,1.374-.416,1.247a4.249,4.249,0,0,0-.9-.958c-.375-.254-.508-.26-.733-.023a1.75,1.75,0,0,0-.312,1.282c.064.728.4.987,1.1.843a3.339,3.339,0,0,0,.531-.15c.156-.081.162-.081.133.046-.017.069-.115.531-.214,1.022s-.19.953-.208,1.022c-.035.185-.121.162-.214-.058A3.766,3.766,0,0,0,6.872,9.8c-.179-.058-.237-.052-.346.017a1.858,1.858,0,0,0-.4,1.565c.139.664.416.814,1.189.652a1.872,1.872,0,0,0,.5-.15c.017-.035.092-.046.162-.029.121.035.121.058.11.71s-.006.681.15.947c.179.3.485.531,1.27.935.306.162.433.26.416.318s-.04.67-.064,1.386a5.932,5.932,0,0,1-.1,1.34c-.04.029-.046.069-.006.133a10.635,10.635,0,0,1-.1,2.517c-.064.04-.064.069,0,.167a8.347,8.347,0,0,1-.1,2.471c-.081.063-.081.075-.006.121s.064.687-.092,5.647c-.1,3.072-.2,5.912-.225,6.31s-.035.855-.029,1.022c.006.254-.081,2.841-.2,6.31-.017.462-.058,1.721-.092,2.8s-.069,1.992-.075,2.021a.89.89,0,0,1-.294.2,1.007,1.007,0,0,1-.629.11,1.171,1.171,0,0,1-.52-.127c-.341-.219-.577-1.051-.756-2.633a4.234,4.234,0,0,0-.82-2.569c-1.114-1.126-2.881-.1-3.493,2.027A4.767,4.767,0,0,0,2.19,45.6a27.308,27.308,0,0,0,.254,4.013c.058.283.318,1.143.572,1.905.635,1.871.733,2.494.566,3.435a9.175,9.175,0,0,1-1.316,2.91c-1.669,3-2.107,4.1-2.234,5.606a8.724,8.724,0,0,0,1.917,6.178A9.121,9.121,0,0,0,4.609,71.9a27.852,27.852,0,0,0,10.629,1.957,7.413,7.413,0,0,0,2.032-.15,5.354,5.354,0,0,0,2.852-1.432,4.8,4.8,0,0,0,1.322-2.939c.208-1.767-.312-3.395-1.8-5.664a10.023,10.023,0,0,1-1.3-2.523c-.393-1.12-.358-1.455.352-3.308a14.435,14.435,0,0,0,1.224-5.693c.058-2.384-.162-3.221-1.08-4.128a2.787,2.787,0,0,0-1.426-.8,1.04,1.04,0,0,0-.768.416,2.735,2.735,0,0,0-.2.618,4.425,4.425,0,0,1-.987,2.367,1.423,1.423,0,0,1-2.229.081l-.277-.271.006-11.345c0-7.581.017-11.368.058-11.414s.04-.081-.006-.11a10.322,10.322,0,0,1,0-2.194c.04-.023.04-.069,0-.144a10.012,10.012,0,0,1,.017-2.315c.052-.1.052-.133,0-.15a12.456,12.456,0,0,1-.069-2.529,9.978,9.978,0,0,1,.087-2.575c.058-.052.063-.087.017-.144a4.269,4.269,0,0,1-.046-1.1c.006-.566.017-1.183.017-1.374.006-.312-.006-.346-.11-.346s-.11-.035-.1-.231a3.549,3.549,0,0,1,1.5-2.506c.312-.243.456-.393.445-.456s-.127-.595-.26-1.195-.346-1.576-.485-2.165a16.554,16.554,0,0,1-.462-2.713l-.035-.491.283-.127a2.836,2.836,0,0,0,1.3-2.673,1.56,1.56,0,0,0-.144-.866,2.932,2.932,0,0,0-.329-.537A3.069,3.069,0,0,0,12.132.051Z" transform="translate(0 0)" fill="#fff"/>
    </g>
    <g id="guitar" transform="translate(-287.053 2749.122) rotate(48)">
      <path id="Tracé_425" data-name="Tracé 425" d="M124.909-1279.65a2.141,2.141,0,0,0-1.181,1.006c-.105.257-.275.2-.327-.093-.029-.181-.07-.24-.216-.287-.287-.1-.4-.076-.579.117a1.055,1.055,0,0,0-.251.877c.035.216.07.251.3.357.269.117.333.105.5-.111.117-.146.275-.181.275-.064a5.812,5.812,0,0,1-.152.585c-.123.4-.181.515-.269.515s-.105-.047-.105-.234-.023-.246-.175-.322a.431.431,0,0,0-.55.035.9.9,0,0,0-.327.807c0,.3.018.362.152.468.281.222.38.216.6-.023.31-.339.357-.2.152.45-.14.444-.193.544-.287.544s-.123-.047-.134-.24c-.018-.263-.088-.316-.456-.316-.316,0-.55.4-.55.93,0,.333.012.357.175.444.263.135.421.111.556-.088.117-.175.327-.24.316-.105,0,.041-.076.31-.164.6-.181.6-.287.672-.386.269-.064-.275-.158-.345-.474-.351s-.555.4-.561.912c-.006.362.023.4.339.515.222.082.234.082.38-.088a.463.463,0,0,1,.275-.176c.117,0,.117.012-.082.6-.105.322-.2.6-.216.614s-.07.006-.123-.017-.094-.106-.094-.252c0-.2-.018-.228-.234-.292-.31-.093-.421-.053-.62.24a.789.789,0,0,0-.17.579c0,.386.07.491.368.579.17.047.21.035.345-.123.158-.17.368-.228.368-.1a5.333,5.333,0,0,1-.17.6c-.134.433-.187.532-.287.544-.117.018-.129-.006-.129-.222s-.018-.246-.2-.328a1.3,1.3,0,0,0-.31-.082c-.111,0-.363.24-.474.45a1.625,1.625,0,0,0-.018.818.807.807,0,0,0,.31.14c.269.07.269.07.444-.123.111-.123.2-.181.269-.158s.07.1-.082.561c-.292.906-.216,1.269.351,1.672a1.9,1.9,0,0,1,.421.415c.123.2.129.228.088,2.088-.023,1.035-.094,5.041-.152,8.9-.117,7.029-.193,11.718-.287,17.2-.047,2.608-.064,2.959-.158,3.152a1.642,1.642,0,0,1-1.55.672,3.148,3.148,0,0,1-2.234-.982,3.434,3.434,0,0,1-1.035-2.456c-.17-1.889-.24-2.134-.62-2.321a1.527,1.527,0,0,0-1.3.058c-.754.409-1.456,2.041-1.579,3.655a16.109,16.109,0,0,0,1.275,6.742c.222.626.462,1.4.532,1.713a9.244,9.244,0,0,1,0,3.672,11.739,11.739,0,0,1-.912,2.532,27.622,27.622,0,0,0-2.31,7.146,12.916,12.916,0,0,0,.094,2.93c.556,2.508,2.532,4.356,5.859,5.467a27.275,27.275,0,0,0,6.216.731,31.48,31.48,0,0,0,6.128-.269c2.76-.614,4.28-1.737,5.327-3.947a6.641,6.641,0,0,0,.713-4c-.181-2.251-.573-3.409-2.579-7.573-.977-2.029-1.111-2.45-1.111-3.462,0-1.1.14-1.625,1.023-3.8a7.781,7.781,0,0,0,.409-5.7,1.764,1.764,0,0,0-.918-1.222,1.23,1.23,0,0,0-1.374.339,1.48,1.48,0,0,0-.333,1.006,3.032,3.032,0,0,1-3.076,3.128,2.764,2.764,0,0,1-2.128-.743c-.164-.24-.17-.275-.216-1.2-.023-.526-.076-3.216-.111-5.982s-.088-6.66-.117-8.654-.082-5.613-.117-8.04-.088-5.894-.117-7.7c-.053-3.555-.053-3.62.251-4.21a4.953,4.953,0,0,1,1.275-1.368,1.327,1.327,0,0,0,.439-.438c.023-.076-.187-1.368-.468-2.9a12.149,12.149,0,0,1-.439-2.924,1.5,1.5,0,0,1,.491-.456,2.444,2.444,0,0,0,.93-.988,1.8,1.8,0,0,0,.123-.854,1.674,1.674,0,0,0-.152-.912,1.86,1.86,0,0,0-1.661-1.146A2.335,2.335,0,0,0,124.909-1279.65Z" transform="translate(0)" fill="#fff"/>
    </g>
    <path id="Icon_metro-piano" data-name="Icon metro-piano" d="M2.571,33.548V6.748H38.692v26.8H2.571ZM9.562,21.9H8.4V7.913H3.736V32.383H9.562Zm6.991,0H15.388V7.913h-3.5V21.9H10.727V32.383h5.826V21.9Zm6.991,0H22.379V7.913h-3.5V21.9H17.718V32.383h5.826Zm2.33-13.982V21.9H24.71V32.383h5.826V21.9H29.37V7.913h-3.5Zm11.652,0H32.866V21.9H31.7V32.383h5.826V7.913Z" transform="translate(830.369 1911.132)" fill="#fff"/>
    <circle id="Ellipse_31" data-name="Ellipse 31" cx="50" cy="50" r="50" transform="translate(325 2089.28)" fill="#ba9dbb"/>
    <text id="Astronomie" transform="translate(334 2144.28)" fill="#fff" font-size="15" font-family="Raleway" font-weight="700"><tspan x="0" y="0">Astronomie</tspan></text>
    <rect id="Rectangle_482" data-name="Rectangle 482" width="6.3" height="73.827" transform="translate(392.269 2166.895) rotate(-37)" fill="#ba9dbb"/>
    <g id="btn-on-2" data-name="btn-on" transform="translate(417 2207.28)">
      <circle id="Ellipse_8-2" data-name="Ellipse 8" cx="34" cy="34" r="34" fill="#98669a"/>
    </g>
    <path id="Icon_metro-rocket" data-name="Icon metro-rocket" d="M23.779,3.856l-9.64,9.64H8.355L2.571,21.208S8.7,19.5,12.273,20.3l-9.7,12.474,12.71-9.886c1.773,4.057-1.142,9.886-1.142,9.886l7.712-5.784V21.208l9.64-9.64,1.928-9.64-9.64,1.928Z" transform="translate(433.005 2223.928)" fill="#fff"/>
    <circle id="Ellipse_32" data-name="Ellipse 32" cx="63" cy="63" r="63" transform="translate(641.705 2120.456)" fill="#98669a"/>
    <rect id="Rectangle_483" data-name="Rectangle 483" width="6.277" height="68.943" transform="translate(629.9 2110.961) rotate(-43)" fill="#98669a"/>
    <path id="Tracé_428" data-name="Tracé 428" d="M25.576,0A25.576,25.576,0,1,1,0,25.576,25.576,25.576,0,0,1,25.576,0Z" transform="translate(485 2043.128)" fill="#ba9dbb"/>
    <g id="Layer_2" data-name="Layer 2" transform="translate(1011.719 1926.418)">
      <g id="LOGO" transform="translate(-522.987 133.481)">
        <path id="Tracé_433" data-name="Tracé 433" d="M222.636,135.31a.629.629,0,0,0,.065.058c.006-.013.011-.021.015-.03a2.44,2.44,0,0,0,.066-.259c.071-.1.16-.223.232-.327l-.121.254c-.052.108-.082.362-.123.474a.032.032,0,0,0,.007.031.481.481,0,0,1,.065.147l0,.014a.569.569,0,0,0,.032.119,1.14,1.14,0,0,1-.03.452l.264-.511.309-.153.583-.693c-.1.041-.181.066-.183.026,0-.071,0-.488,0-.488l-.023-.622s-.008-.348-.008-.578q0-.054,0-.108c0-.036,0-.065,0-.079s0-.011,0,0q0-.246,0-.491c0-.124,0-.248,0-.371a1.148,1.148,0,0,1,.008-.187c.015-.09.024-.181.033-.272l-.584,1.357.143-.532,0-.009c.057-.326.188-.643.248-.968q.038-.208.087-.412c0-.013.006-.027.009-.041.01-.04.02-.079.03-.119-.015.053-.026.106-.039.16-.025.107-.046.214-.069.322-.006.03-.013.06-.018.09l-.027.151.357-1.328s0-.007,0-.011h0c.011-.044.109-.743.109-.743s-.319.967-.354,1.079c-.022.07-.091.107-.112.178-.049.165-.7,2.226-.706,2.264s-.141.285-.15.338a4.978,4.978,0,0,1-.075.538,5.417,5.417,0,0,0-.123.794c-.017.05-.036.237-.054.287l-.03.084.016.011A.431.431,0,0,1,222.636,135.31Zm-3.352,3.809a.152.152,0,0,0-.025-.064.131.131,0,0,1-.019-.041c-.016-.065-.03-.129-.044-.194a.052.052,0,0,0-.02-.032,1.3,1.3,0,0,1-.21-.238l-.025-.031c.026,0,.023-.006.047-.013l-.02-.025-.222-.6.406.695h0a.48.48,0,0,0-.011-.092c-.029-.141-.058-.282-.086-.423-.012-.062-.02-.125-.029-.187s-.018-.134-.027-.2c-.006-.041-.014-.083-.018-.124-.007-.072-.012-.145-.017-.217-.007-.117-.014-.1-.02-.215,0-.038,0-.075,0-.113,0-.012,0-.022-.015-.027a.617.617,0,0,1-.173-.118l-.038-.035c-.1-.6-.311-.633-.433-.873-.2-.125-.461-.3-.461-.3l-.372-.308.223.49c.016.046.032.092.049.137.04.107.08.214.12.321l.08.218.133.362c.02.056.038.112.06.167.049.124.1.248.149.372.008.02.014.04.023.06.021.049.043.1.064.146l.086.2a1.179,1.179,0,0,1,.046.11c.024.075.046.15.066.226a1.829,1.829,0,0,0,.088.248.3.3,0,0,0,.017.032,1.866,1.866,0,0,0,.159.225c.014.017.03.033.044.051l.2.257q.063.081.127.161c.037.045.074.089.112.134l.021.02.005,0-.007-.025c-.01-.043-.023-.085-.03-.128Zm-1.827-8.792a.4.4,0,0,1,0,.052.21.21,0,0,0,.007.082.346.346,0,0,1,.013.1q0,.214,0,.427a.41.41,0,0,0,.007.095c.018.076.037.153.062.227l.086.248a1.09,1.09,0,0,0,.014.184l.181.593-.339-.81v.1c0,.056,0,.112,0,.169a.326.326,0,0,0,0,.076c.012.046.022.093.034.14l.079.163.137.407.3.778-.543-.821c0,.016,0,.032,0,.048,0,.061.006.122.009.184a.565.565,0,0,0,.006.061c0,.032.014.064.017.1a1.1,1.1,0,0,0,.012.119c.015.085.026.171.042.256.011.062.027.122.04.183.019.1.034.193.055.289,0,.008,0,.015,0,.023a2.845,2.845,0,0,0,0,.307.064.064,0,0,0,.006.033,5.8,5.8,0,0,0,.009.637,1.872,1.872,0,0,0,.037.509s.183.245.195.262a.849.849,0,0,0,.058.07.812.812,0,0,0,.311.221.191.191,0,0,1,.046.03c.118.168.256.34.3.326,0,0-.006-.013-.013-.035h0c0-.056-.023-.139-.023-.207a.549.549,0,0,1,.023-.156,2.043,2.043,0,0,1,.071-.236c0-.006.005-.012.008-.018a.067.067,0,0,0,.008-.024.786.786,0,0,1,.13-.225.73.73,0,0,1,.07-.059c.016-.011.014-.025.01-.04-.025-.12-.056-.376-.069-.5-.007-.069-.023-.137-.034-.206-.016-.1-.03-.209-.049-.312a.825.825,0,0,0-.04-.148c-.022-.057-.053-.11-.076-.167a.981.981,0,0,1-.047-.136c-.025-.1-.046-.2-.07-.3-.013-.056-.026-.112-.041-.166q-.064-.225-.131-.45c-.026-.088-.054-.176-.079-.264-.018-.061-.038-.121-.05-.183a3.436,3.436,0,0,0-.148-.464c-.035-.1-.076-.2-.109-.3s-.055-.2-.084-.295c-.073-.252-.146-.5-.218-.757-.032-.109-.061-.218-.091-.328,0-.013-.005-.026-.009-.039s-.018-.048-.025-.073-.016-.069-.026-.1c-.019-.065-.04-.129-.061-.193,0,0,0,0-.008,0a.1.1,0,0,0-.009.063C217.452,130.014,217.454,130.17,217.456,130.327ZM223.8,135.4l-.648.405-.328.538a2.48,2.48,0,0,1-.23.555l0,.007c-.039.031-.075.056-.075.056l-.054.044v.012s0,.038-.007.057-.008.034-.009.052c0,.079-.01.159-.013.239-.007.15-.012.3-.019.451,0,.047-.013.093-.019.14l-.021.142c.046-.062.092-.117.132-.176s.09-.146.134-.219c.02-.033.037-.067.055-.1a.364.364,0,0,0,.051-.008l.234-.333-.359.837-.093.058-.05.1c-.008.016-.013.035-.02.051a.643.643,0,0,1-.03.063.2.2,0,0,0-.036.118.087.087,0,0,1,0,.018c-.011.085-.025.17-.032.256-.011.128-.031.256-.054.383a1.2,1.2,0,0,0-.022.259c0,.009,0,.018,0,.028h.006l.023-.054.215-.509c.034-.08.068-.16.1-.239s.073-.173.115-.257c.068-.135.14-.268.21-.4.046-.087.09-.174.137-.26a2.666,2.666,0,0,0,.129-.285c.022-.054.039-.109.06-.164s.048-.119.072-.179c.018-.044.036-.087.053-.13s.042-.117.063-.176c.009-.026.019-.052.029-.078.015-.042.031-.084.046-.126s.035-.094.048-.142c.017-.064.033-.128.049-.192.176-.491.471-1.125.591-1.377Zm-2.939.983a1.367,1.367,0,0,1,.039-.173c.027-.079.062-.156.093-.233.023-.057.047-.113.068-.171a.544.544,0,0,1,.077-.156l.074-.094.009-.012.126-.091c0-.016,0-.029-.006-.042-.009-.1-.018-.342-.026-.443q-.027-.321-.054-.642c-.007-.083-.013-.165-.02-.248-.011-.132-.023-.265-.034-.4q-.011-.135-.022-.269t-.023-.278c0-.029,0-.057-.005-.086-.009-.1-.02-.2-.029-.293-.007-.08-.013-.159-.02-.239s-.017-.187-.023-.281c-.005-.073-.008-.145-.011-.218,0-.027,0-.055,0-.083s0-.084,0-.126c0-.022,0-.045,0-.067,0-.152-.007-.3-.011-.457,0-.085,0-.17-.009-.254s-.009-.168-.02-.251c-.021-.171-.046-.342-.069-.514s-.05-.371-.075-.556c-.008-.059-.013-.118-.021-.177-.017-.127-.139-.868-.139-.868a.983.983,0,0,1-.021.134.045.045,0,0,0,0,.018c0,.024.082,1.3.09,1.423s.016.266.026.4c.007.1.018.2.026.293,0,.036.006.071.009.107a.123.123,0,0,0-.01-.019c-.015-.021-.039-.06-.067-.109,0-.019.031,1.031.031,1.031l-.268-2.565a1.933,1.933,0,0,0-.122.425,1.074,1.074,0,0,1-.123.242l0,.08c0,.043-.007.083-.01.123s-.006.094-.01.141c-.009.108-.018.216-.028.324q-.011.135-.022.269c-.007.088-.016.175-.021.263,0,.053,0,.106,0,.16.005.161.013.323.017.485,0,.1,0,.2,0,.294a1.725,1.725,0,0,1-.007.358c-.009.061-.008.122-.012.183,0,.031,0,.062-.005.092s-.007.065-.011.1-.014.07-.02.105q-.039.238-.077.475c-.009.058-.019.115-.026.173s-.015.144-.023.216c-.005.049-.011.1-.015.146s-.006.1-.01.157-.012.114-.014.171c0,.181-.007.362-.011.543,0,.1,0,.34-.011.449,0,.011,0,.019,0,.021-.013.11.058.085.205.208l0,.006a.2.2,0,0,0,.027.025.279.279,0,0,1,.048.037h0a.473.473,0,0,1,.041.045.709.709,0,0,1,.133.257.91.91,0,0,1,.026.169c.006.059.007.119.012.177s.013.114.019.171c.011.109.011.081.025.19.007.053.011.106.015.159a2.24,2.24,0,0,0-.065.4c-.005.061-.012.119-.021.173,0-.006,0-.011,0-.017-.006-.079-.014-.157-.021-.235-.009-.1-.039-.218-.05-.317a.524.524,0,0,0-.013-.078c0-.006,0-.013-.005-.019a.141.141,0,0,0-.005.046.122.122,0,0,1-.021.069c-.011.018-.021.037-.032.056a.238.238,0,0,1-.025.042.854.854,0,0,1-.155.159s0,0,0,0c.008.028.016.082.032.133a1.144,1.144,0,0,1,.064.252c.007.045.01.091.015.137.008.071.019.142.025.213s.005.147.007.221c0,.052,0,.1,0,.157,0,.017,0,.034,0,.052,0,.051-.006.1-.005.159,0,.02,0,.041,0,.064a.777.777,0,0,1-.016.091.138.138,0,0,1-.046.09c.007.028.013.052.018.075.026.118.05.236.085.352.009.03.017.061.024.092s.016.091.025.136c0,.006,0,.012,0,.018.02.127.04.242.059.33,0,0,0,0,0,0l0,.011.006.028a.041.041,0,0,0,.009.024c.01.033.02.066.028.1.015.061.026.124.04.186s.027.111.04.167.028.136.044.2c.022.1.042.194.068.289.02.074.049.146.074.219l.094.269c0,.007.006.014.012.025,0-.037.008-.067.012-.1.009-.073.019-.146.028-.219s.019-.156.028-.234c.006-.052.014-.1.02-.155s.011-.108.017-.161.015-.082.019-.124c.006-.07.009-.141.014-.211a.248.248,0,0,1,.01-.073.621.621,0,0,0,.028-.119l.042-.215,0,0c.006-.035.011-.074.017-.119.029-.148.055-.4.081-.543.016-.084.026-.169.037-.255.008-.061.013-.122.02-.183.014-.118.028-.235.042-.353.008-.068.016-.136.023-.2s.02-.165.024-.247c.009-.192.015-.247.023-.439a.036.036,0,0,0-.02-.036.486.486,0,0,1-.078-.058.724.724,0,0,1-.171-.287,1.067,1.067,0,0,1-.038-.158c-.01-.055-.014-.111-.02-.167h-.007c-.005.023-.012.045-.015.068-.018.145-.036.152-.052.3s-.023.294-.026.441c-.024-.157-.054-.318-.086-.478h0a.35.35,0,0,0,.01-.066,3.742,3.742,0,0,1,.056-.41Z" transform="translate(-199.24 -117.883)" fill="#d70926"/>
        <path id="Tracé_434" data-name="Tracé 434" d="M23.012,10.192l.058-.293-.007-.191h-.916a1.881,1.881,0,0,1-.552-.117l.186,1.184.01,0,.159.014,1.053,0h.517V9.709H23.31ZM18.521,2.335h.443V.411h.826V0h-2.1V.411h.827Zm3.13,3.08h1.588V4.331h-1.69l.094.717ZM20.512,8.792a2.741,2.741,0,0,1-.388-1.181V6.13c0,.44,0,1.047,0,1.043V5.414h1.151l.035-.3.086-.779H18.451a.588.588,0,0,1,.241.091h0a1.372,1.372,0,0,1,.216.192.568.568,0,0,1,.041.071V6.96l.023.9,0,.014a3.578,3.578,0,0,0,.273,1.032s.12.251.135.279a2.6,2.6,0,0,0,.179.273l.235.782.422.6-.164-.721a1.411,1.411,0,0,0-.027-.152c-.061-.226-.111-.443-.111-.443l.106.095-.106-1.012.4,1.581a3.647,3.647,0,0,0,.849.427l.156-.722.03.076.078-.44A1.831,1.831,0,0,1,20.512,8.792ZM15.588,4.906l-.453-.533-.023-.041H14l1.186,2.2V5.414h2.308V4.331H15.368Zm.022,8.3-.862-1.1.335.7-.089.034.252.348.025.02h-.419v2.807h.667c.828,0,1.267-.486,1.267-1.405,0-.882-.406-1.363-1.175-1.4Zm-.126,2.4h-.177v-2h.177c.587,0,.837.3.837,1s-.25,1-.837,1ZM24.563,1.956h-.256c-.067-.009-.464-.109-.577-.322a1.048,1.048,0,0,1-.133-.373h.663V.85H23.6V.356h.956V.031H22.948a.367.367,0,0,1,.2.129l0,0V1.169h0V1.2h0l0,.063a1.253,1.253,0,0,0,.224.637,1.309,1.309,0,0,0,.825.465l.031.005h.329ZM42.252,3.593a.328.328,0,0,0,.109.07.337.337,0,0,0,.129.025.35.35,0,0,0,.128-.024.331.331,0,0,0,.108-.07.333.333,0,0,0,.074-.371.3.3,0,0,0-.073-.106.341.341,0,0,0-.237-.095.374.374,0,0,0-.13.025.362.362,0,0,0-.108.07.335.335,0,0,0-.074.106.321.321,0,0,0-.027.132.33.33,0,0,0,.1.239Zm-.013-.348a.256.256,0,0,1,.059-.088.275.275,0,0,1,.086-.06.287.287,0,0,1,.107-.02.282.282,0,0,1,.106.02.268.268,0,0,1,.085.059.274.274,0,0,1,.058.088.3.3,0,0,1,.02.11.29.29,0,0,1-.035.142.268.268,0,0,1-.1.1.271.271,0,0,1-.136.036.275.275,0,0,1-.138-.036.279.279,0,0,1-.1-.1.282.282,0,0,1-.036-.142.3.3,0,0,1,.02-.109ZM29.322,4.331V6.252l.721-1.921Zm-.313,2.754-2.04-.214-.281.5.084-.526-.8-.084V4.331h-1.7a.714.714,0,0,1,.524.411v6.045h.19l.1-.15L25.4,9.9l-.112.839-.007.025.691-.691V7.855l2.644.278ZM13.643,15.607H12.387V13.2h-.456v2.807h1.712ZM42.427,3.378h.062l.093.153h.06l-.1-.156a.125.125,0,0,0,.047-.015.072.072,0,0,0,.032-.032.1.1,0,0,0,.012-.051A.088.088,0,0,0,42.6,3.2a.147.147,0,0,0-.094-.025h-.134v.354h.053Zm0-.155H42.5c.052,0,.077.018.077.052s-.007.04-.021.047a.153.153,0,0,1-.064.01h-.064ZM20.379.143V2.35h.443V1.3L22,1.425v1.4l.119-.079a.889.889,0,0,0,.211-.212.628.628,0,0,0,.112-.248V2.279h0V.016H22v1L20.822.889V.015H20.18A.365.365,0,0,1,20.379.143ZM7.041,10.837l.63-.932,0-5.573H5.989a.587.587,0,0,1,.241.091A.6.6,0,0,1,6.5,4.7V9.308l-.465-.2L5.95,9.068l-.017-.007-.172-.076A2.258,2.258,0,0,1,4.655,7.943a3.151,3.151,0,0,1-.23-.9V4.331H3.248V6.778c0,.028,0,.068,0,.112s0,.079,0,.124V9.3l-.466-.2-.091-.041h0L2.512,8.98A2.259,2.259,0,0,1,1.406,7.938a3.162,3.162,0,0,1-.23-.9V4.325H0l0,2.4c0,.04,0,.1,0,.16a3.4,3.4,0,0,0,.4,1.632,3.5,3.5,0,0,0,1.744,1.514l1.654.8L4.421,9.9V9.457l.053.042a3.569,3.569,0,0,0,.914.536ZM10.4,13.529V13.2H9.475v.325h.236v2.157H9.475v.325H10.4v-.325h-.236V13.529Zm3.608-2.742h.755l.344.536.478.673-.3-.778a1.285,1.285,0,0,1-.282-.34,3.637,3.637,0,0,0-.235-.568l.263.3.1.175h.047V7.967l-1.3-3.636H11.7V5.414h2.309ZM9.5,4.762V9.879l1.173.92V4.331H8.965a.711.711,0,0,1,.532.431ZM7.383,15.1c-.008.038-.029.134-.055.3-.033-.226-.066-.371-.083-.443L6.8,13.2H6.445l-.463,1.9c-.006.025-.026.112-.056.3-.03-.2-.061-.347-.083-.442L5.406,13.2H4.977l.714,2.807h.434l.407-1.623a3.3,3.3,0,0,0,.073-.4,3.63,3.63,0,0,0,.069.4l.407,1.63h.449l.7-2.807h-.4Zm27.627.344c-.1-.26-.2-.529-.327-.8l-.634-1.421-.009-.019h-.576v2.807h.4V13.736a7.652,7.652,0,0,0,.289.729l.695,1.545h.561V13.2h-.4Zm-3.218-.337v-.347l-.127.158.127-.39v-.012l.218-.338.2-.5-.419.545V13.2h-.415v1.7c0,.542-.145.773-.484.773-.3,0-.447-.223-.447-.7V13.2H29.99v1.848c0,.664.319,1.03.9,1.03a.89.89,0,0,0,.9-.974Zm-4.9-.368h.928v1.271h.456v-2.6l.1-.157.3-.833-.393.689-.065.1h-.391v1.132h-.928V13.2h-.456v2.807h.456Zm8.442-4.977A2.576,2.576,0,0,1,33.7,8.847h0a3.133,3.133,0,0,1-.376-1.108L33.314,7.7H35.17V6.619H33.322V5.243h2.671V4.331H31.584a.7.7,0,0,1,.55.5v2.68h0v.017h0l.01.2a3.475,3.475,0,0,0,.619,1.763,3.628,3.628,0,0,0,2.283,1.285l.086.014h.883V9.763s-.515.013-.686,0Zm-4.837.87v-.014h0V4.331h-.386l-.993,3.854.206.022V9.445l.519-.983-.244.868-.275.659V12.08l.282-.187a2.459,2.459,0,0,0,.581-.583,1.723,1.723,0,0,0,.308-.677Zm6.126,2.974h.8v2.4h.456v-2.4h.8v-.4H36.618Zm6.968-3.085a12.963,12.963,0,0,1-1.1-.893l-.043-.038c-.37-.332-.715-.667-1.026-.97-.174-.168-.389-.411-.6-.64-.134-.148-.264-.289-.382-.406l-.025-.024.649-.578a2.994,2.994,0,0,0,.6-.6,1.927,1.927,0,0,0,.267-1.087c0-.382,0-.747,0-.749V4.332h-4.9a.588.588,0,0,1,.241.091.6.6,0,0,1,.254.251V6.954h0v3.832H38.7V8.037h.544l.007,0a2.746,2.746,0,0,1,.559.485c.248.257.531.574.838.869.381.366.809.776,1.273,1.169a9.691,9.691,0,0,0,1.495,1.066l.272.151V10.606ZM39.441,6.945l-.009.009H38.7v-1.7h2.065v.258a.178.178,0,0,1,0,.024.768.768,0,0,1-.037.11c0,.011-.01.024-.016.034S40.7,5.7,40.7,5.7s-.018.036-.031.056c-.023.037-.16.176-.291.308Z" fill="#fff"/>
      </g>
    </g>
    <rect id="Rectangle_484" data-name="Rectangle 484" width="6.277" height="46.943" transform="matrix(0.174, 0.985, -0.985, 0.174, 602.875, 2112.49)" fill="#98669a"/>
    <path id="Tracé_426" data-name="Tracé 426" d="M32.576,0A32.576,32.576,0,1,1,0,32.576,32.576,32.576,0,0,1,32.576,0Z" transform="translate(590.157 2068.88)" fill="#ba9dbb"/>
    <g id="layer1" transform="translate(467.176 2011.264)">
      <path id="path4201" d="M155.244,114.252c-.1-.226-.5-1.106-.892-1.955-1.531-3.347-1.595-3.531-1.379-3.949.064-.124.373-.609.687-1.079.7-1.05.789-1.215.789-1.5a4.9,4.9,0,0,0-.4-1.137,6.017,6.017,0,0,1-.435-1.238c-.033-.307-.006-.39.374-1.15.225-.451.634-1.219.909-1.707.714-1.268.8-1.494.8-2.177a8.057,8.057,0,0,0-.1-1.15,14.912,14.912,0,0,0-.753-2.752,4.5,4.5,0,0,0-1.982-1.972,5.154,5.154,0,0,0-.468-.23,6.09,6.09,0,0,0-.023.871,3.378,3.378,0,0,1-.147,1.5,1.041,1.041,0,0,1-.133-.407,3.2,3.2,0,0,0-1.749-2.3l-.526-.256-.044,1.136a20.667,20.667,0,0,1-.214,2.21c-.093.591-.17,1.154-.17,1.25a4.128,4.128,0,0,0,2.4,2.543l.229.043v3.883c0,2.136-.025,3.855-.056,3.821s-.685-1.438-1.455-3.118-1.99-4.342-2.712-5.915-1.631-3.554-2.019-4.4c-1.385-3.027-2.491-5.433-2.822-6.139l-.336-.717,2.21-4.8c1.215-2.642,2.381-5.173,2.589-5.625.912-1.972,3.165-6.868,3.824-8.311.916-2,.83-1.849.955-1.724.077.077.108.3.13.911a2.488,2.488,0,0,0,.4,1.631,2.765,2.765,0,0,1,.407,1.011c0,.038-.126-.067-.279-.235a1.569,1.569,0,0,0-.509-.379c-.21-.068-.242-.06-.371.088-.275.317-.838,2.275-1.753,6.086-.754,3.144-.9,4.042-.727,4.464a4.482,4.482,0,0,0,.655.808A2.615,2.615,0,0,1,151,81.54l.047.23-.419-.4a4.026,4.026,0,0,0-.64-.515,1.586,1.586,0,0,0-1.128-.087l-.231.1-.311,1.6c-.54,2.779-.594,3.453-.314,3.913a2.031,2.031,0,0,0,1.976.488c.7-.108.938-.239,1.015-.553a.606.606,0,0,0-.091-.542,3.088,3.088,0,0,0-.858-.9c-.164-.118-.163-.118.218-.081a3.262,3.262,0,0,1,2.443,2.323c.062.192.128.334.146.316a4.417,4.417,0,0,0-.307-1.569,2.845,2.845,0,0,1-.178-.487,3.014,3.014,0,0,1,.788.562,2.9,2.9,0,0,1,.39.463q.345.555-.087-.691a6.075,6.075,0,0,1-.614-2.59,1.955,1.955,0,0,1,.205-1.2,3.842,3.842,0,0,1,2.517-1.887,4.618,4.618,0,0,0,1.841-1,1.346,1.346,0,0,0,.553-1.169,1.45,1.45,0,0,0-.541-1.2,2.787,2.787,0,0,0-2.046-.76,2.445,2.445,0,0,0-1.435.607,2.242,2.242,0,0,0-.9,1.255c-.134.468-.132.464-.264.355a1.643,1.643,0,0,1-.4-.9.569.569,0,0,1,.159-.592,1.362,1.362,0,0,0,.339-1.063,2.065,2.065,0,0,1,.345-1.161l.345-.711-.02-1.065c-.019-.987-.009-1.086.124-1.348.177-.35.394-.662.433-.624a1.755,1.755,0,0,1-.046.457,1.585,1.585,0,0,0,.027.825,5.528,5.528,0,0,0,.664,1.614c.157.169.174.172,1.043.172,1.08,0,1.634-.138,1.922-.478l.18-.212-.048.2a1.125,1.125,0,0,1-.557.642c-.926.6-1.178.789-1.255.932-.127.237-.022.325.635.535a3.122,3.122,0,0,1,1.939,1.53,1.841,1.841,0,0,1,.152.995,1.933,1.933,0,0,1-.183,1.08c-.382.816-.762,1.14-2.287,1.951-1.17.622-1.308.72-1.515,1.076a1.126,1.126,0,0,0-.149.665c0,.481.038.544.981,1.835a7.035,7.035,0,0,1,1.463,2.823l.059.2.085-.263a3.049,3.049,0,0,1,.809-1.32c.4-.366.816-.63.752-.481a4.975,4.975,0,0,0-.468,1.571c-.043.534-.015.515.226-.147a3.624,3.624,0,0,1,1.448-1.772,2.866,2.866,0,0,1,1.075-.312l.2,0-.164.112a3.146,3.146,0,0,0-.86.878c-.266.521-.121.848.452,1.019a4.613,4.613,0,0,0,1.858.035,1.233,1.233,0,0,0,.729-.821c.1-.382.02-1.015-.451-3.49l-.311-1.636-.214-.089c-.551-.23-1.12-.043-1.775.583l-.431.412.048-.23A2.688,2.688,0,0,1,161,80.148c.719-.754.775-.892.672-1.643-.107-.783-.468-2.439-.986-4.522-.834-3.355-1.289-4.888-1.533-5.161-.13-.145-.162-.152-.4-.085a.864.864,0,0,0-.482.364c-.121.16-.234.277-.251.26-.071-.071.139-.625.419-1.107l.3-.515.064-.937c.06-.874.133-1.18.251-1.055.027.029.285.57.573,1.2s1.131,2.466,1.872,4.075c2.242,4.864,6.692,14.535,6.85,14.886l.148.329-2.1,4.568c-1.152,2.512-2.374,5.174-2.715,5.915-2.765,6.015-4.463,9.714-4.509,9.825-.03.072-.056-1.632-.059-3.788l0-3.919.222-.042a3.839,3.839,0,0,0,1.419-.954,6.033,6.033,0,0,0,.7-.939l.335-.566-.088-.548a20.462,20.462,0,0,1-.342-3.033l-.043-1.105-.53.266a3.2,3.2,0,0,0-1.745,2.294,1.148,1.148,0,0,1-.127.407,4.08,4.08,0,0,1-.168-1.68l.045-.691-.212.11a3.469,3.469,0,0,0-1.04,1.076c-.364.714-.406,1.263-.234,3.053.222,2.3.21,2.348-1.147,4.442-1.069,1.649-1.335,2.137-1.339,2.456a7.537,7.537,0,0,0,.282,1.257,8.331,8.331,0,0,1,.286,1.219c0,.264-.1.438-.939,1.639-.894,1.279-.911,1.336-.59,1.971a2.144,2.144,0,0,0,.877,1,1.482,1.482,0,0,0,.893.107,2.54,2.54,0,0,0,1.768-.728l.416-.33-.1.223c-.173.4-1.733,3.891-1.972,4.413a2.494,2.494,0,0,1-.273.509,1.658,1.658,0,0,1-.225-.411Z" fill="#fff"/>
    </g>
    <rect id="Rectangle_485" data-name="Rectangle 485" width="6.3" height="41.633" transform="translate(517.384 2085.789) rotate(-25)" fill="#ba9dbb"/>
    <path id="Tracé_427" data-name="Tracé 427" d="M18,0A18,18,0,1,1,0,18,18,18,0,0,1,18,0Z" transform="translate(526.286 2108.032)" fill="#98669a"/>
    <g id="Half-Life_2" transform="translate(522.231 2107.13)">
      <path id="Tracé_431" data-name="Tracé 431" d="M19.536,8.47c2-.148,4.248-.067,6.547-.067,2.06,0,4.78-.3,6.213.267a3.1,3.1,0,0,1,2.071,3.474A11.159,11.159,0,0,1,33.3,14.884c-1.073,2.613-2.314,5.6-3.34,8.084A10.211,10.211,0,0,1,19.4,29.448a10.444,10.444,0,0,1-6.814-3.274,10.1,10.1,0,0,1-2.873-7.215,10.528,10.528,0,0,1,2.873-7.215A10.291,10.291,0,0,1,19.536,8.47m12.292,2.539a1.372,1.372,0,1,0-2.739-.067h1c-.151-.868.681-.849.8-.267.256,1.234-2.279,2.242-1.871,3.741.961,0,1.934-.019,2.806.067a1.066,1.066,0,0,0,0-.8H30.091c.494-.745,1.628-1.538,1.737-2.672m-17.7,1.937a7.866,7.866,0,0,0-2.405,5.077,8.461,8.461,0,0,0,4.142,8.284,8.716,8.716,0,0,0,8.418.2,8.348,8.348,0,0,0,4.409-6.146,8.832,8.832,0,0,0-2.605-7.75A8.522,8.522,0,0,0,19.2,10.474a8.152,8.152,0,0,0-5.077,2.472" fill="#fff"/>
      <path id="Tracé_432" data-name="Tracé 432" d="M86.068,70.064h3.073c1.08,3.151,2.394,6.068,3.474,9.219a10.228,10.228,0,0,0,1.6-.534c.32.482.368,1.236.668,1.737a19.089,19.089,0,0,1-3.608,1.136c-.624-1.915-1.41-3.667-2.071-5.545-1.189,1.617-2.184,3.428-3.34,5.077H83.6a1.858,1.858,0,0,1,.4-.935c1.312-2.178,2.824-4.631,4.142-6.881-.116-.553-.387-.949-.535-1.47H86.068v-1.8Z" transform="translate(-68.67 -57.385)" fill="#fff"/>
    </g>
    <rect id="Rectangle_486" data-name="Rectangle 486" width="6.277" height="51.9" transform="matrix(0.017, 1, -1, 0.017, 533.03, 2241.689)" fill="#98669a"/>
    <path id="Tracé_435" data-name="Tracé 435" d="M40,0A40,40,0,1,1,0,40,40,40,0,0,1,40,0Z" transform="translate(526 2205.28)" fill="#ba9dbb"/>
    <g id="Icon_ionic-md-planet" data-name="Icon ionic-md-planet" transform="translate(537.193 2218.591)">
      <path id="Tracé_436" data-name="Tracé 436" d="M9.889,13.307c-.3.356-.581.711-.854,1.091A111.123,111.123,0,0,0,23.759,27.877a114.943,114.943,0,0,0,13.206,8.9c.7.391,1.387.771,2.051,1.114.3-.356.581-.711.854-1.091a17.752,17.752,0,0,0,2.762-6.354c.095-.379.178-.759.249-1.126A19.052,19.052,0,0,0,16.231,8.435,17.693,17.693,0,0,0,9.889,13.307Z" transform="translate(4.653 0.925)" fill="#fff"/>
      <path id="Tracé_437" data-name="Tracé 437" d="M48.031,35.073a22.085,22.085,0,0,1-.877,2.075,29.63,29.63,0,0,1,3.782,5.5c.285.486.877,1.553.107,1.47a5.654,5.654,0,0,1-.652-.154A44.971,44.971,0,0,1,40.4,39.53a117.7,117.7,0,0,1-13.431-9.045A110.765,110.765,0,0,1,11.483,16.2a40.689,40.689,0,0,1-4.232-5.678,8.955,8.955,0,0,1-.664-1.233c-.3-.735.593-.6.83-.545a24.84,24.84,0,0,1,6.9,2.821,9.963,9.963,0,0,1,1.648-1.351A38.736,38.736,0,0,0,8.235,6C5.5,4.962,3.363,5.2,2.6,6.444,1.158,8.8,4.264,15.015,10.345,22.092A19.051,19.051,0,0,0,38,43.43a67.61,67.61,0,0,0,11.487,4.137c2.833.723,4.789.652,5.548-.581C56.353,44.829,53.6,40.846,48.031,35.073Z" transform="translate(0 0)" fill="#fff"/>
    </g>
    <text id="Jeux_vidéo" data-name="Jeux vidéo" transform="translate(653.291 2190.114)" fill="#fff" font-size="20" font-family="Raleway" font-weight="700"><tspan x="0" y="0">Jeux vidéo</tspan></text>
    <circle id="Ellipse_33" data-name="Ellipse 33" cx="66" cy="66" r="66" transform="translate(799 2007.28)" fill="#ba9dbb"/>
    <text id="Numérique" transform="translate(817 2083.28)" fill="#fff" font-size="18" font-family="Raleway" font-weight="700"><tspan x="0" y="0">Numérique</tspan></text>
    <rect id="Rectangle_491" data-name="Rectangle 491" width="6.3" height="41.633" transform="translate(855.897 2125.646) rotate(7)" fill="#ba9dbb"/>
    <g id="btn-on-3" data-name="btn-on" transform="translate(820 2155.28)">
      <circle id="Ellipse_8-3" data-name="Ellipse 8" cx="34" cy="34" r="34" fill="#98669a"/>
    </g>
    <rect id="Rectangle_487" data-name="Rectangle 487" width="20" height="15" rx="1" transform="translate(837 2179.28)" fill="#fff"/>
    <rect id="Rectangle_488" data-name="Rectangle 488" width="22" height="3" rx="1.5" transform="translate(836 2196.28)" fill="#fff"/>
    <rect id="Rectangle_489" data-name="Rectangle 489" width="12" height="20" rx="4" transform="translate(860 2179.28)" fill="#fff"/>
    <rect id="Rectangle_490" data-name="Rectangle 490" width="18" height="13" rx="1" transform="translate(838 2180.28)" fill="#98669a"/>
    <rect id="Rectangle_492" data-name="Rectangle 492" width="6.3" height="28.633" transform="translate(829.685 2269.476) rotate(78)" fill="#ba9dbb"/>
    <path id="Tracé_439" data-name="Tracé 439" d="M28.44,0A28.44,28.44,0,1,1,0,28.44,28.44,28.44,0,0,1,28.44,0Z" transform="translate(754.56 2252.84)" fill="#98669a"/>
    <g id="iot" transform="translate(762.562 2260.417)">
      <path id="Tracé_440" data-name="Tracé 440" d="M36.99,2.074a7.083,7.083,0,0,1-7.832,11.5L28.5,14.817A8.2,8.2,0,0,1,29.478,27.7l.676.866a7.081,7.081,0,1,1-1.365,1.066c.04-.04.08-.077.12-.117l-.659-.889a8.207,8.207,0,0,1-11.228-2.607L13.076,28.07a7.044,7.044,0,1,1-.989-1.249l.01.013,4.225-2.194a8.22,8.22,0,0,1,.593-7.206l-2.687-2.088c-.067.073-.137.147-.206.216a7.043,7.043,0,1,1,1.122-1.455l2.684,2.084a8.212,8.212,0,0,1,9.32-2.111l.676-1.272a6.927,6.927,0,0,1-.839-.719A7.079,7.079,0,1,1,36.99,2.074ZM24.957,23.655a1.186,1.186,0,1,1-.839-.35,1.185,1.185,0,0,1,.839.35Zm1.458-5.181a8.137,8.137,0,0,1,2.148,1.492.564.564,0,0,1,.176.39.571.571,0,0,1-.15.4l-.013.013a.55.55,0,0,1-.376.16.558.558,0,0,1-.4-.15l-.01-.01A7.037,7.037,0,0,0,25.979,19.5a4.35,4.35,0,0,0-3.7-.06,6.935,6.935,0,0,0-1.848,1.205.13.13,0,0,1-.033.027.555.555,0,0,1-.753-.057.13.13,0,0,1-.027-.033.544.544,0,0,1-.12-.383.569.569,0,0,1,.186-.383A8.024,8.024,0,0,1,21.877,18.4a5.454,5.454,0,0,1,4.538.077ZM25.509,20.8a4.745,4.745,0,0,1,1.3.769l.013.01a.558.558,0,0,1,.077.769l-.013.017a.556.556,0,0,1-.779.073,3.693,3.693,0,0,0-.989-.593,2.679,2.679,0,0,0-1-.193,2.711,2.711,0,0,0-1.006.2,3.86,3.86,0,0,0-1,.6.559.559,0,0,1-.909-.489v-.01a.555.555,0,0,1,.2-.366,4.94,4.94,0,0,1,1.315-.779,3.848,3.848,0,0,1,1.4-.27,3.776,3.776,0,0,1,1.4.26Zm-.553,4.538ZM6.337,9.67h.516V8.957a2.116,2.116,0,0,1,.629-1.508h0a2.137,2.137,0,0,1,1.512-.629,2.116,2.116,0,0,1,1.508.629h0a2.135,2.135,0,0,1,.629,1.508V9.67h.41a.169.169,0,0,1,.166.166v3.52a.169.169,0,0,1-.166.166H6.333a.169.169,0,0,1-.166-.166V9.836a.168.168,0,0,1,.17-.166Zm1.345,0H10.3V8.944a1.3,1.3,0,0,0-.383-.922h0a1.305,1.305,0,0,0-2.228.922V9.67Zm-.6,18.51L3.24,31.942l.936.493,2.88-3.02,2.927,3.02.936-.493L7.079,28.18Zm-2.7,4.645h0l2.7-2.7,2.694,2.7h0v2.65h-5.4v-2.65Zm2.427.869-.356.932H7.7l-.33-.946a.65.65,0,1,0-.946-.579.674.674,0,0,0,.383.593ZM36,33.76c-.063.03-.127.067-.19.1a4.491,4.491,0,0,0-.569.4l-.41-.466a3.419,3.419,0,0,1,.456-.356,3.172,3.172,0,0,1,.4-.223c.057-.027.11-.053.166-.077a2.482,2.482,0,0,0-1.1-1.029,2.7,2.7,0,0,0-1.405-.246,2.569,2.569,0,0,0-1.319.516,2.487,2.487,0,0,0-.906,1.528l-.04.213-.21.037a2.952,2.952,0,0,0-.553.15,1.928,1.928,0,0,0-.42.223,1.322,1.322,0,0,0-.253.236,1.423,1.423,0,0,0-.323.936,1.689,1.689,0,0,0,.32.972,1.554,1.554,0,0,0,.266.286,1.319,1.319,0,0,0,.35.21,1.8,1.8,0,0,0,.43.113H36.82A3.167,3.167,0,0,0,37.6,37a1.7,1.7,0,0,0,.539-.456,1.867,1.867,0,0,0,.32-1.086,2.14,2.14,0,0,0-.3-1.169,1.753,1.753,0,0,0-.19-.243,1.465,1.465,0,0,0-1.092-.473,2.065,2.065,0,0,0-.872.19ZM29.552,6.809a2.921,2.921,0,0,1-.293-1.265,2.941,2.941,0,0,1,.356-1.352s0-.007,0-.01h0a2.563,2.563,0,0,1,1.252-1.1,2.767,2.767,0,0,1,1.3-.186,3.028,3.028,0,0,1,1.245.4A2.579,2.579,0,0,1,34.5,4.532a2.731,2.731,0,0,1,.206.956A2.766,2.766,0,0,1,34.5,6.61L33.3,8.474l-2.5.36a3.3,3.3,0,0,0-.573-1.066,3.811,3.811,0,0,1-.676-.959Zm1.5,3.579a7.746,7.746,0,0,1-.206-.956l2.627-.39c-.1.466-.01.706-.08,1.072a1.248,1.248,0,0,1-2.341.273Zm6.959,20.032a5.965,5.965,0,1,0,1.745,4.215,5.938,5.938,0,0,0-1.745-4.215ZM36.2,2.864a5.965,5.965,0,1,0,1.745,4.215A5.938,5.938,0,0,0,36.2,2.864ZM13.229,6.337a5.965,5.965,0,1,0,1.745,4.215,5.938,5.938,0,0,0-1.745-4.215ZM11.295,27.614a5.965,5.965,0,1,0,1.745,4.215,5.944,5.944,0,0,0-1.745-4.215Z" fill="#fff" fill-rule="evenodd"/>
    </g>
    <rect id="Rectangle_493" data-name="Rectangle 493" width="6.277" height="46.943" transform="translate(849.723 2211.898)" fill="#98669a"/>
    <path id="Tracé_438" data-name="Tracé 438" d="M25.576,0A25.576,25.576,0,1,1,0,25.576,25.576,25.576,0,0,1,25.576,0Z" transform="translate(825.424 2241.689)" fill="#ba9dbb"/>
    <path id="Icon_simple-visualstudiocode" data-name="Icon simple-visualstudiocode" d="M27.972,3.144,22,.272a1.805,1.805,0,0,0-2.06.35L8.512,11.05,3.534,7.27a1.207,1.207,0,0,0-1.542.069L.4,8.792a1.208,1.208,0,0,0,0,1.787l4.317,3.939L.394,18.457a1.208,1.208,0,0,0,0,1.787l1.6,1.451a1.207,1.207,0,0,0,1.542.069l4.978-3.78L19.944,28.412a1.8,1.8,0,0,0,2.059.35l5.972-2.872A1.812,1.812,0,0,0,29,24.257V4.778a1.813,1.813,0,0,0-1.027-1.634ZM21.754,21.1l-8.673-6.583,8.673-6.583V21.1Z" transform="translate(837 2252.748)" fill="#fff"/>
  </g>
</svg>
