<svg id="picto-curieux" xmlns="http://www.w3.org/2000/svg" width="159" height="173" viewBox="0 0 159 173">
  <path id="Polygone_18" data-name="Polygone 18" d="M16.5,0,33,28H0Z" transform="translate(63)" fill="#ba9dbb"/>
  <circle id="Ellipse_29" data-name="Ellipse 29" cx="79.5" cy="79.5" r="79.5" transform="translate(0 14)" fill="#ba9dbb"/>
  <path id="Icon_awesome-question" data-name="Icon awesome-question" d="M36.551,0C20.829,0,10.645,6.442,2.65,17.93a4.732,4.732,0,0,0,1.02,6.475l8.5,6.443a4.727,4.727,0,0,0,6.55-.817c4.934-6.181,8.594-9.74,16.3-9.74,6.06,0,13.555,3.9,13.555,9.776,0,4.442-3.667,6.724-9.65,10.078-6.978,3.912-16.211,8.78-16.211,20.959v1.928A4.727,4.727,0,0,0,27.44,67.76H41.715a4.727,4.727,0,0,0,4.727-4.727V61.9c0-8.442,24.675-8.794,24.675-31.64C71.117,13.051,53.271,0,36.551,0ZM34.577,73.563A13.645,13.645,0,1,0,48.222,87.207,13.66,13.66,0,0,0,34.577,73.563Z" transform="translate(43.042 43.074)" fill="#fff"/>
</svg>
