<svg id="picto-creatif" xmlns="http://www.w3.org/2000/svg" width="159" height="173" viewBox="0 0 159 173">
  <circle id="Ellipse_27" data-name="Ellipse 27" cx="79.5" cy="79.5" r="79.5" transform="translate(0 14)" fill="#ba9dbb"/>
  <path id="Icon_material-lightbulb-outline" data-name="Icon material-lightbulb-outline" d="M29.2,106.1a5.442,5.442,0,0,0,5.426,5.426h21.7a5.442,5.442,0,0,0,5.426-5.426v-5.426H29.2ZM45.484,3a37.967,37.967,0,0,0-21.7,69.13V84.394A5.442,5.442,0,0,0,29.2,89.82H61.762a5.442,5.442,0,0,0,5.426-5.426V72.13A37.967,37.967,0,0,0,45.484,3ZM60.948,63.231l-4.612,3.256v12.48h-21.7V66.487l-4.612-3.256a27.131,27.131,0,1,1,30.93,0Z" transform="translate(34.016 35.738)" fill="#fff"/>
  <path id="Polygone_20" data-name="Polygone 20" d="M16.5,0,33,28H0Z" transform="translate(63)" fill="#ba9dbb"/>
</svg>
