<svg id="picto-ambitieux" xmlns="http://www.w3.org/2000/svg" width="159" height="173" viewBox="0 0 159 173">
  <g id="Groupe_210" data-name="Groupe 210">
    <g id="Groupe_208" data-name="Groupe 208">
      <circle id="Ellipse_26" data-name="Ellipse 26" cx="79.5" cy="79.5" r="79.5" fill="#98669a"/>
    </g>
    <path id="Icon_weather-stars" data-name="Icon weather-stars" d="M6.444,61.176a11.061,11.061,0,0,0,7.746-3.521,11.032,11.032,0,0,0,3.192-7.887A11.391,11.391,0,0,0,28.274,61.176,11.391,11.391,0,0,0,17.382,72.583,10.841,10.841,0,0,0,14.19,64.7,11.061,11.061,0,0,0,6.444,61.176Zm10.938-33.8a21.575,21.575,0,0,0,15.069-6.9,21.489,21.489,0,0,0,6.2-15.4,21.489,21.489,0,0,0,6.2,15.4,21.788,21.788,0,0,0,15.116,6.9,21.759,21.759,0,0,0-10.75,3.333,22.559,22.559,0,0,0-7.746,8.122,22.075,22.075,0,0,0-2.817,10.938,21.6,21.6,0,0,0-6.2-15.445A21.434,21.434,0,0,0,17.382,27.375Zm15.586,50.56a16.163,16.163,0,0,0,11.361-5.164,16.167,16.167,0,0,0,4.648-11.6A16.773,16.773,0,0,0,64.938,77.935,16.773,16.773,0,0,0,48.976,94.694a16.167,16.167,0,0,0-4.648-11.6A16.445,16.445,0,0,0,32.968,77.935Zm31.97-22.252a16.057,16.057,0,0,0,11.314-5.164,16.156,16.156,0,0,0,4.6-11.642A16.769,16.769,0,0,0,96.861,55.636,16.769,16.769,0,0,0,80.852,72.4,16.6,16.6,0,0,0,64.938,55.683Z" transform="translate(27.848 29.615)" fill="#fff"/>
  </g>
  <path id="Polygone_17" data-name="Polygone 17" d="M16.5,0,33,28H0Z" transform="translate(96 173) rotate(180)" fill="#98669a"/>
</svg>
