<svg id="sql-logo" xmlns="http://www.w3.org/2000/svg" width="23.5" height="25.5" viewBox="0 0 23.5 25.5">
  <path id="Soustraction_4" data-name="Soustraction 4" d="M2171,6.5a15.619,15.619,0,0,1-6.16-1.129c-1.487-.66-2.339-1.525-2.339-2.372V-14c0-.847.853-1.711,2.339-2.372A15.635,15.635,0,0,1,2171-17.5a15.643,15.643,0,0,1,6.161,1.128c1.487.661,2.339,1.525,2.339,2.372V3c0,.846-.853,1.711-2.339,2.372A15.627,15.627,0,0,1,2171,6.5ZM2170.951-8a2.3,2.3,0,0,0-.976.206,2.418,2.418,0,0,0-.77.56,2.673,2.673,0,0,0-.511.806,2.472,2.472,0,0,0-.186.949,2.543,2.543,0,0,0,.175.927,2.64,2.64,0,0,0,.493.808,2.415,2.415,0,0,0,.763.571,2.27,2.27,0,0,0,.991.214,2.32,2.32,0,0,0,.969-.2,2.485,2.485,0,0,0,.29-.156l.288.324h.91l-.681-.766a2.6,2.6,0,0,0,.471-.764,2.5,2.5,0,0,0,.182-.941,2.525,2.525,0,0,0-.175-.924,2.791,2.791,0,0,0-.49-.812,2.385,2.385,0,0,0-.76-.58A2.219,2.219,0,0,0,2170.951-8Zm-6.37,3.562h0l-.427.833a3.273,3.273,0,0,0,.63.347,3.922,3.922,0,0,0,.714.22,3.671,3.671,0,0,0,.743.077,2.969,2.969,0,0,0,.7-.08,1.837,1.837,0,0,0,.589-.255,1.226,1.226,0,0,0,.406-.456,1.461,1.461,0,0,0,.146-.679,1.249,1.249,0,0,0-.192-.728,1.369,1.369,0,0,0-.553-.445,4.417,4.417,0,0,0-.851-.29c-.253-.065-.465-.126-.63-.181a1.026,1.026,0,0,1-.378-.2.422.422,0,0,1-.126-.32.485.485,0,0,1,.2-.411,1,1,0,0,1,.592-.146,1.671,1.671,0,0,1,.441.059,3.381,3.381,0,0,1,.4.136,2.009,2.009,0,0,1,.315.161,1.227,1.227,0,0,1,.178.133l.427-.784a3.443,3.443,0,0,0-.49-.273,3.228,3.228,0,0,0-.584-.2A2.767,2.767,0,0,0,2166.17-8a2.3,2.3,0,0,0-.917.177,1.512,1.512,0,0,0-.654.523,1.46,1.46,0,0,0-.242.854,1.187,1.187,0,0,0,.154.627,1.159,1.159,0,0,0,.47.415,4.188,4.188,0,0,0,.784.3c.269.077.491.144.678.205a1.494,1.494,0,0,1,.448.22.42.42,0,0,1,.161.349.42.42,0,0,1-.2.373,1.107,1.107,0,0,1-.595.131,2.215,2.215,0,0,1-.552-.07,3.253,3.253,0,0,1-.5-.171,3.015,3.015,0,0,1-.392-.2,1.39,1.39,0,0,1-.224-.165Zm9.513-3.528L2174.1-3h3.493l-.007-.833-2.526-.013-.014-4.124Zm-3.157,4.152a1.307,1.307,0,0,1-.612-.14,1.424,1.424,0,0,1-.456-.371,1.684,1.684,0,0,1-.283-.532,2.023,2.023,0,0,1-.1-.623,1.955,1.955,0,0,1,.094-.6,1.8,1.8,0,0,1,.277-.536,1.353,1.353,0,0,1,.451-.385,1.323,1.323,0,0,1,.626-.144,1.293,1.293,0,0,1,.606.14,1.426,1.426,0,0,1,.456.371,1.754,1.754,0,0,1,.287.532,1.96,1.96,0,0,1,.1.624,1.979,1.979,0,0,1-.094.6,1.82,1.82,0,0,1-.2.429l-.341-.384h-.91l.761.856-.036.02,0,0A1.322,1.322,0,0,1,2170.937-3.819Z" transform="translate(-2162.5 17.5)" fill="#98669a"/>
  <ellipse id="Ellipse_20" data-name="Ellipse 20" cx="6" cy="2" rx="6" ry="2" transform="translate(2.5 1.5)" fill="#fff"/>
  <path id="Union_18" data-name="Union 18" d="M2171.541-8.089A6.066,6.066,0,0,1,2170.5-8a5.966,5.966,0,0,1-2.095-.375A4.957,4.957,0,0,1,2166.5-8a4.272,4.272,0,0,1-4.5-4,4.218,4.218,0,0,1,4.086-3.984A5.689,5.689,0,0,1,2170.5-18a5.346,5.346,0,0,1,5.459,4.39c1.815.516,3.04,1.492,3.04,2.611,0,1.657-2.687,3-6,3A11.8,11.8,0,0,1,2171.541-8.089Z" transform="translate(-2155.5 33.5)" fill="#fff"/>
</svg>
